<?xml version="1.0" encoding="utf-8"?>
<!-- Generator: Adobe Adobe Illustrator 24.2.0, SVG Export Plug-In . SVG Version: 6.00 Build 0)  -->
<svg version="1.1" xmlns="http://www.w3.org/2000/svg" xmlns:xlink="http://www.w3.org/1999/xlink" x="0px" y="0px" width="1920px"
	 height="1080px" viewBox="0 0 1920 1080" style="enable-background:new 0 0 1920 1080;" xml:space="preserve">
<style type="text/css">
	.st2{fill:#08301c;}
</style>
<g id="Layer_11">
</g>
<g id="Layer_5">
	<path class="st2" d="M679.04,321.53c-19.23,1.11-36.02,18.78-36.16,38.04s16.41,37.16,35.62,38.54s38.15-13.97,40.76-33.06
		C721.89,345.97,707.79,326.08,679.04,321.53z"/>
	<path class="st2" d="M670.63,312.85c-5.19-14.71-9.15-39.38-6.54-61.33c0.26-2.19,0.59-4.44,1.79-6.38
		c1.2-1.94,3.47-3.53,5.98-3.47c3.47,0.08,6.18,3.1,9.65,3.11c3.25,0.01,5.83-2.62,9.07-2.9c3.09-0.27,5.96,1.75,7.27,4.22
		c1.31,2.46,1.37,5.28,1.34,7.99c-0.25,17.85-4.05,35.56-9.46,52.77c-1.21,3.85-2.67,7.91-6.15,10.47S672.78,318.94,670.63,312.85z"
		/>
	<path class="st2" d="M644.07,327.74c-13.13-10.16-31.2-29.77-42.18-50.52c-1.1-2.07-2.17-4.23-2.33-6.59s0.78-4.98,2.91-6.3
		c2.93-1.81,7.01-0.61,9.9-2.48c2.71-1.75,3.29-5.46,5.81-7.46c2.41-1.91,6.02-1.68,8.58-0.21c2.56,1.46,4.3,3.91,5.9,6.32
		c10.48,15.88,17.92,33.54,23.73,51.64c1.3,4.05,2.52,8.41,1.15,12.56C656.17,328.84,649.51,331.94,644.07,327.74z"/>
	<path class="st2" d="M634.05,349.85c-15.81-1.97-40.55-9.09-60.28-20.35c-1.97-1.13-3.97-2.33-5.35-4.1s-2.03-4.26-1.04-6.26
		c1.37-2.76,5.23-3.68,6.53-6.47c1.22-2.61-0.29-5.79,0.64-8.51c0.89-2.6,3.88-4.07,6.69-4.09c2.81-0.02,5.49,1.1,8.04,2.26
		c16.75,7.66,32.03,18.11,46.25,29.65c3.18,2.58,6.46,5.45,7.58,9.33C644.22,345.19,640.6,350.67,634.05,349.85z"/>
	<path class="st2" d="M700.35,323.42c-4.21-5.11-0.36-11.44,1.43-17.76c4.83-17.03,13.51-33,25.24-46.45
		c1.55-1.78,3.23-3.57,5.41-4.54c2.18-0.97,5.01-0.92,6.72,0.72c1.87,1.79,2.03,5,4.27,6.33c2.36,1.4,5.81-0.08,7.99,1.58
		c1.32,1.01,2.14,3.14,2.14,4.77c0,2.55-1.55,4.93-2.42,6.33c-11.26,18.29-32.14,40.26-36.43,43.68
		C705.68,325.28,702.82,326.41,700.35,323.42z"/>
	<path class="st2" d="M723.34,362.58c-0.41-4.93,2.95-7.91,9.75-9.79c15.33-4.25,30.87-8.54,46.83-9.53
		c3.95-0.25,8.08-0.26,11.54,1.09c3.46,1.36,6.01,4.45,5.01,7.52c-0.71,2.2-3.1,4.18-2.75,6.38c0.39,2.53,4.17,3.82,4.97,6.27
		c0.64,1.95-0.89,4.13-3.05,5.36c-2.15,1.23-4.8,1.7-7.37,2.03c-16.64,2.16-44.03-0.45-53.28-2.06
		C729.34,368.89,723.87,368.91,723.34,362.58z"/>
	<path class="st2" d="M718.91,338.36c-2.5-4.3-0.72-8.4,4.66-12.94c12.14-10.23,24.45-20.58,38.57-28.13
		c3.5-1.87,7.25-3.6,10.99-3.81c3.74-0.21,7.4,1.54,7.81,4.74c0.3,2.29-1.02,5.08,0.24,6.93c1.45,2.13,5.45,1.73,7.23,3.62
		c1.42,1.51,0.97,4.12-0.46,6.13c-1.43,2.01-3.64,3.54-5.84,4.91c-14.24,8.88-40.32,17.91-49.45,20.3
		C727.11,341.59,722.12,343.89,718.91,338.36z"/>
	<path class="st2" d="M687.06,407.98c3.03,15.02,3.41,39.53-2.31,60.5c-0.57,2.09-1.22,4.23-2.68,5.95
		c-1.46,1.72-3.94,2.94-6.42,2.54c-3.42-0.56-5.68-3.87-9.11-4.37c-3.21-0.47-6.15,1.73-9.39,1.56c-3.09-0.17-5.65-2.54-6.59-5.11
		c-0.94-2.58-0.6-5.32-0.18-7.95c2.81-17.31,9.1-33.98,16.92-49.95c1.75-3.57,3.77-7.31,7.59-9.32
		C678.71,399.81,685.8,401.77,687.06,407.98z"/>
	<path class="st2" d="M711.57,399.21c12.63,9.35,29.87,27.59,40.11,47.16c1.02,1.95,2.02,3.99,2.12,6.25
		c0.1,2.25-0.89,4.8-3.01,6.12c-2.93,1.82-6.89,0.8-9.79,2.67c-2.71,1.75-3.37,5.33-5.9,7.33c-2.41,1.9-5.95,1.79-8.43,0.46
		s-4.13-3.62-5.63-5.88c-9.88-14.9-16.74-31.6-21.97-48.77c-1.17-3.84-2.25-7.99-0.8-12S706.34,395.34,711.57,399.21z"/>
	<path class="st2" d="M724.71,378.37c15.03,1.63,38.45,8.19,57,18.95c1.85,1.07,3.73,2.23,5.01,3.96c1.28,1.73,1.84,4.18,0.85,6.18
		c-1.36,2.76-5.07,3.75-6.37,6.54c-1.22,2.61,0.15,5.73-0.8,8.44c-0.91,2.59-3.79,4.1-6.47,4.18c-2.68,0.08-5.21-0.98-7.61-2.08
		c-15.79-7.25-30.12-17.29-43.42-28.44c-2.97-2.49-6.04-5.27-7.02-9.09S718.49,377.69,724.71,378.37z"/>
	<path class="st2" d="M642.9,383.88c1.05,6.48-5.51,10.09-10.29,14.71c-12.86,12.41-28.53,22.04-45.54,28
		c-2.25,0.79-4.61,1.52-7,1.3s-4.81-1.64-5.46-3.9c-0.71-2.47,0.79-5.33-0.47-7.57c-1.33-2.37-5.08-2.76-6.12-5.26
		c-0.63-1.52-0.26-3.76,0.57-5.18c1.3-2.21,3.86-3.52,5.32-4.31c19.08-10.38,48.38-19.27,53.84-20.14
		C639.23,379.67,642.29,380.08,642.9,383.88z"/>
	<path class="st2" d="M657.3,397.44c3.7,5.48-0.75,11.42-3.15,17.55c-6.46,16.5-16.65,31.6-29.62,43.91
		c-1.72,1.63-3.56,3.25-5.82,4.02c-2.26,0.76-5.07,0.45-6.62-1.34c-1.69-1.96-1.53-5.17-3.63-6.7c-2.22-1.62-5.8-0.45-7.8-2.31
		c-1.21-1.13-1.83-3.32-1.67-4.95c0.25-2.54,2.02-4.76,3.02-6.08c12.98-17.16,35.89-37.11,40.5-40.12
		C652.18,395.1,655.13,394.23,657.3,397.44z"/>
	<path class="st2" d="M636.97,364.65c-0.28,4.94-4.04,7.45-11.08,8.42c-15.87,2.19-31.96,4.38-48,3.27
		c-3.97-0.28-8.09-0.81-11.35-2.61c-3.26-1.8-5.37-5.2-3.95-8.12c1.02-2.08,3.67-3.73,3.63-5.96c-0.04-2.56-3.63-4.34-4.08-6.87
		c-0.36-2.02,1.46-3.98,3.78-4.91c2.32-0.94,5.02-1.05,7.63-1.04c16.89,0.06,43.82,6.26,52.82,9.07
		C631.86,357.61,637.32,358.31,636.97,364.65z"/>
	<path class="st2" d="M657.01,881.25c-16.82,0.96-31.5,16.19-31.62,32.81c-0.12,16.61,14.35,32.05,31.15,33.24
		c16.8,1.19,33.35-12.05,35.64-28.51C694.48,902.32,682.15,885.18,657.01,881.25z"/>
	<path class="st2" d="M649.66,873.76c-4.54-12.69-8-33.96-5.72-52.89c0.23-1.89,0.51-3.83,1.56-5.5c1.05-1.67,3.03-3.04,5.23-2.99
		c3.03,0.07,5.41,2.67,8.44,2.68c2.84,0.01,5.1-2.26,7.93-2.5c2.7-0.23,5.21,1.51,6.36,3.64c1.14,2.12,1.2,4.55,1.17,6.89
		c-0.22,15.4-3.54,30.67-8.27,45.51c-1.06,3.32-2.33,6.82-5.38,9.03C657.93,879.84,651.54,879.02,649.66,873.76z"/>
	<path class="st2" d="M626.44,886.6c-11.48-8.76-27.28-25.67-36.88-43.57c-0.96-1.79-1.9-3.65-2.04-5.68s0.68-4.3,2.54-5.43
		c2.57-1.56,6.13-0.53,8.66-2.14c2.37-1.51,2.88-4.71,5.08-6.44c2.11-1.65,5.26-1.45,7.5-0.19c2.24,1.26,3.76,3.37,5.16,5.45
		c9.17,13.69,15.67,28.92,20.75,44.54c1.13,3.49,2.2,7.26,1,10.83C637.02,887.55,631.2,890.23,626.44,886.6z"/>
	<path class="st2" d="M617.67,905.68c-13.82-1.7-35.45-7.84-52.7-17.55c-1.72-0.97-3.47-2.01-4.68-3.54
		c-1.21-1.53-1.78-3.68-0.91-5.4c1.19-2.38,4.57-3.18,5.71-5.58c1.07-2.25-0.26-4.99,0.56-7.34c0.78-2.24,3.39-3.51,5.85-3.53
		c2.46-0.02,4.8,0.95,7.03,1.95c14.64,6.61,28,15.62,40.44,25.57c2.78,2.22,5.65,4.7,6.63,8.04S623.4,906.38,617.67,905.68z"/>
	<path class="st2" d="M675.65,882.88c-3.68-4.41-0.32-9.86,1.25-15.32c4.23-14.69,11.81-28.46,22.06-40.06
		c1.36-1.54,2.82-3.08,4.73-3.91c1.91-0.83,4.38-0.79,5.87,0.62c1.63,1.55,1.77,4.32,3.73,5.46c2.06,1.21,5.08-0.07,6.99,1.36
		c1.15,0.87,1.87,2.71,1.87,4.12c0,2.2-1.36,4.25-2.11,5.46c-9.85,15.77-28.1,34.72-31.86,37.67
		C680.31,884.48,677.8,885.46,675.65,882.88z"/>
	<path class="st2" d="M695.75,916.65c-0.36-4.25,2.58-6.82,8.53-8.45c13.4-3.66,26.99-7.36,40.95-8.22
		c3.46-0.21,7.06-0.23,10.09,0.94c3.02,1.17,5.25,3.84,4.38,6.49c-0.62,1.9-2.71,3.6-2.41,5.51c0.34,2.18,3.65,3.3,4.35,5.41
		c0.56,1.68-0.78,3.56-2.66,4.62c-1.88,1.06-4.2,1.47-6.45,1.76c-14.55,1.86-38.5-0.39-46.59-1.78
		C701,922.09,696.21,922.11,695.75,916.65z"/>
	<path class="st2" d="M691.87,895.77c-2.18-3.71-0.63-7.25,4.08-11.16c10.61-8.82,21.38-17.75,33.72-24.26
		c3.06-1.61,6.34-3.1,9.6-3.28c3.27-0.18,6.47,1.33,6.83,4.09c0.26,1.98-0.89,4.38,0.21,5.98c1.27,1.84,4.76,1.49,6.33,3.12
		c1.24,1.3,0.85,3.55-0.41,5.29c-1.25,1.74-3.18,3.05-5.11,4.24c-12.45,7.66-35.25,15.44-43.23,17.51
		C699.04,898.55,694.68,900.53,691.87,895.77z"/>
	<path class="st2" d="M664.02,955.81c2.65,12.95,2.98,34.09-2.02,52.17c-0.5,1.81-1.07,3.65-2.35,5.13
		c-1.28,1.48-3.44,2.54-5.61,2.19c-2.99-0.48-4.96-3.34-7.96-3.77c-2.81-0.4-5.38,1.49-8.21,1.34c-2.71-0.14-4.94-2.19-5.76-4.41
		c-0.82-2.22-0.53-4.59-0.16-6.86c2.45-14.93,7.96-29.31,14.8-43.08c1.53-3.08,3.3-6.3,6.64-8.04
		C656.73,948.76,662.93,950.45,664.02,955.81z"/>
	<path class="st2" d="M685.45,948.25c11.05,8.06,26.11,23.8,35.07,40.67c0.9,1.69,1.77,3.44,1.86,5.39
		c0.09,1.94-0.78,4.14-2.63,5.28c-2.56,1.57-6.03,0.69-8.56,2.3c-2.37,1.51-2.95,4.6-5.16,6.32c-2.11,1.64-5.2,1.54-7.37,0.4
		c-2.17-1.14-3.61-3.12-4.92-5.07c-8.64-12.85-14.63-27.25-19.21-42.06c-1.02-3.31-1.97-6.89-0.7-10.35
		C675.09,947.64,680.88,944.91,685.45,948.25z"/>
	<path class="st2" d="M696.95,930.27c13.14,1.41,33.61,7.06,49.84,16.34c1.62,0.93,3.26,1.92,4.38,3.41
		c1.12,1.49,1.61,3.6,0.74,5.33c-1.19,2.38-4.43,3.24-5.57,5.64c-1.07,2.25,0.13,4.94-0.7,7.28c-0.8,2.23-3.31,3.54-5.65,3.61
		c-2.34,0.07-4.55-0.84-6.65-1.79c-13.81-6.25-26.34-14.92-37.96-24.53c-2.6-2.15-5.28-4.54-6.14-7.84S691.51,929.68,696.95,930.27z
		"/>
	<path class="st2" d="M625.41,935.02c0.92,5.59-4.82,8.71-9,12.68c-11.25,10.71-24.94,19.01-39.82,24.14
		c-1.97,0.68-4.03,1.31-6.12,1.12s-4.2-1.42-4.77-3.36c-0.62-2.13,0.69-4.59-0.41-6.53c-1.17-2.04-4.45-2.38-5.36-4.54
		c-0.55-1.31-0.23-3.25,0.5-4.47c1.14-1.91,3.37-3.04,4.65-3.72c16.68-8.95,42.3-16.61,47.08-17.37
		C622.2,931.39,624.88,931.75,625.41,935.02z"/>
	<path class="st2" d="M638,946.72c3.23,4.73-0.65,9.85-2.75,15.14c-5.65,14.23-14.55,27.26-25.9,37.87
		c-1.5,1.41-3.11,2.81-5.09,3.46c-1.98,0.66-4.44,0.39-5.79-1.16c-1.48-1.69-1.34-4.46-3.18-5.78c-1.94-1.39-5.07-0.39-6.82-2
		c-1.06-0.97-1.6-2.86-1.46-4.27c0.22-2.19,1.77-4.11,2.64-5.24c11.35-14.8,31.38-32,35.41-34.6
		C633.52,944.7,636.11,943.95,638,946.72z"/>
	<path class="st2" d="M620.23,918.44c-0.24,4.26-3.53,6.42-9.69,7.26c-13.87,1.89-27.94,3.78-41.97,2.82
		c-3.47-0.24-7.07-0.7-9.92-2.25c-2.85-1.55-4.7-4.49-3.45-7c0.89-1.8,3.21-3.22,3.18-5.14c-0.04-2.21-3.17-3.74-3.57-5.93
		c-0.32-1.74,1.28-3.43,3.31-4.24s4.39-0.91,6.67-0.9c14.76,0.05,38.31,5.4,46.18,7.82C615.76,912.36,620.54,912.97,620.23,918.44z"
		/>
	<path class="st2" d="M170.8,793c-12.91,0.74-24.18,12.52-24.27,25.37c-0.09,12.85,11.01,24.78,23.91,25.7
		c12.9,0.92,25.6-9.32,27.36-22.05C199.56,809.3,190.09,796.04,170.8,793z"/>
	<path class="st2" d="M165.15,787.21c-3.48-9.81-6.14-26.26-4.39-40.9c0.17-1.46,0.4-2.96,1.2-4.26c0.8-1.29,2.33-2.35,4.02-2.31
		c2.33,0.05,4.15,2.07,6.48,2.08c2.18,0.01,3.92-1.75,6.09-1.94c2.07-0.18,4,1.17,4.88,2.81s0.92,3.52,0.9,5.33
		c-0.17,11.91-2.72,23.71-6.35,35.2c-0.81,2.57-1.79,5.27-4.13,6.99C171.5,791.91,166.6,791.27,165.15,787.21z"/>
	<path class="st2" d="M147.33,797.14c-8.82-6.78-20.94-19.85-28.31-33.7c-0.74-1.38-1.46-2.82-1.57-4.4
		c-0.11-1.57,0.52-3.32,1.95-4.2c1.97-1.21,4.7-0.41,6.65-1.65c1.82-1.17,2.21-3.64,3.9-4.98c1.62-1.27,4.04-1.12,5.76-0.14
		s2.89,2.61,3.96,4.22c7.04,10.59,12.03,22.37,15.93,34.44c0.87,2.7,1.69,5.61,0.77,8.38C155.45,797.88,150.98,799.95,147.33,797.14
		z"/>
	<path class="st2" d="M140.6,811.89c-10.61-1.31-27.21-6.06-40.46-13.57c-1.32-0.75-2.66-1.55-3.59-2.74s-1.36-2.84-0.7-4.18
		c0.92-1.84,3.51-2.46,4.39-4.31c0.82-1.74-0.2-3.86,0.43-5.67c0.6-1.73,2.6-2.71,4.49-2.73c1.89-0.02,3.68,0.73,5.39,1.51
		c11.24,5.11,21.5,12.08,31.04,19.78c2.13,1.72,4.34,3.63,5.09,6.22C147.43,808.78,144.99,812.43,140.6,811.89z"/>
	<path class="st2" d="M185.1,794.26c-2.83-3.41-0.24-7.63,0.96-11.85c3.24-11.36,9.07-22.01,16.94-30.98
		c1.04-1.19,2.16-2.38,3.63-3.03c1.46-0.65,3.36-0.61,4.51,0.48c1.25,1.2,1.36,3.34,2.86,4.22c1.59,0.94,3.9-0.06,5.36,1.05
		c0.88,0.67,1.44,2.09,1.44,3.18c0,1.7-1.04,3.29-1.62,4.22c-7.56,12.2-21.57,26.85-24.45,29.13
		C188.68,795.5,186.76,796.26,185.1,794.26z"/>
	<path class="st2" d="M200.53,820.38c-0.28-3.29,1.98-5.27,6.55-6.53c10.29-2.83,20.72-5.69,31.44-6.36
		c2.65-0.16,5.42-0.17,7.74,0.73c2.32,0.9,4.03,2.97,3.36,5.02c-0.48,1.47-2.08,2.79-1.85,4.26c0.26,1.69,2.8,2.55,3.34,4.18
		c0.43,1.3-0.6,2.76-2.05,3.58c-1.45,0.82-3.22,1.14-4.95,1.36c-11.17,1.44-29.55-0.3-35.76-1.37
		C204.56,824.58,200.88,824.6,200.53,820.38z"/>
	<path class="st2" d="M197.56,804.23c-1.68-2.87-0.48-5.6,3.13-8.63c8.15-6.82,16.41-13.73,25.89-18.76
		c2.35-1.25,4.87-2.4,7.37-2.54c2.51-0.14,4.97,1.03,5.24,3.16c0.2,1.53-0.69,3.39,0.16,4.62c0.97,1.42,3.66,1.15,4.86,2.42
		c0.95,1,0.65,2.75-0.31,4.09c-0.96,1.34-2.44,2.36-3.92,3.28c-9.56,5.92-27.06,11.94-33.19,13.54
		C203.06,806.38,199.71,807.91,197.56,804.23z"/>
	<path class="st2" d="M176.18,850.66c2.03,10.02,2.29,26.36-1.55,40.35c-0.38,1.4-0.82,2.82-1.8,3.97s-2.64,1.96-4.31,1.69
		c-2.3-0.37-3.81-2.58-6.11-2.91c-2.16-0.31-4.13,1.15-6.3,1.04c-2.08-0.11-3.79-1.69-4.42-3.41c-0.63-1.72-0.41-3.55-0.12-5.3
		c1.88-11.55,6.11-22.66,11.36-33.31c1.17-2.38,2.53-4.88,5.1-6.21C170.58,845.21,175.34,846.51,176.18,850.66z"/>
	<path class="st2" d="M192.63,844.81c8.48,6.23,20.05,18.4,26.92,31.45c0.69,1.3,1.36,2.66,1.42,4.17c0.07,1.5-0.6,3.2-2.02,4.08
		c-1.96,1.21-4.63,0.53-6.57,1.78c-1.82,1.17-2.26,3.56-3.96,4.89c-1.62,1.27-3.99,1.19-5.66,0.31s-2.77-2.41-3.78-3.92
		c-6.63-9.94-11.23-21.07-14.75-32.53c-0.79-2.56-1.51-5.33-0.54-8C184.68,844.34,189.12,842.23,192.63,844.81z"/>
	<path class="st2" d="M201.45,830.91c10.09,1.09,25.8,5.46,38.26,12.64c1.24,0.72,2.5,1.49,3.36,2.64c0.86,1.15,1.24,2.79,0.57,4.12
		c-0.92,1.84-3.4,2.5-4.28,4.36c-0.82,1.74,0.1,3.82-0.54,5.63c-0.61,1.73-2.54,2.74-4.34,2.79s-3.49-0.65-5.11-1.39
		c-10.6-4.84-20.22-11.53-29.14-18.97c-1.99-1.66-4.05-3.51-4.71-6.06C194.87,834.12,197.28,830.45,201.45,830.91z"/>
	<path class="st2" d="M146.54,834.58c0.7,4.32-3.7,6.73-6.91,9.81c-8.63,8.28-19.15,14.7-30.57,18.67c-1.51,0.53-3.1,1.02-4.7,0.87
		c-1.6-0.15-3.23-1.1-3.66-2.6c-0.48-1.64,0.53-3.55-0.32-5.05c-0.89-1.58-3.41-1.84-4.11-3.51c-0.42-1.01-0.17-2.51,0.39-3.46
		c0.87-1.48,2.59-2.35,3.57-2.88c12.81-6.92,32.47-12.85,36.14-13.43C144.08,831.77,146.13,832.05,146.54,834.58z"/>
	<path class="st2" d="M156.21,843.63c2.48,3.65-0.5,7.62-2.11,11.7c-4.34,11.01-11.17,21.08-19.88,29.28
		c-1.15,1.09-2.39,2.17-3.91,2.68c-1.52,0.51-3.41,0.3-4.44-0.89c-1.13-1.31-1.03-3.45-2.44-4.47c-1.49-1.08-3.89-0.3-5.24-1.54
		c-0.82-0.75-1.23-2.21-1.12-3.3c0.17-1.69,1.36-3.18,2.03-4.05c8.71-11.45,24.09-24.75,27.18-26.75
		C152.77,842.06,154.75,841.49,156.21,843.63z"/>
	<path class="st2" d="M142.56,821.76c-0.19,3.29-2.71,4.97-7.44,5.61c-10.65,1.46-21.45,2.92-32.22,2.18
		c-2.67-0.18-5.43-0.54-7.61-1.74s-3.61-3.47-2.65-5.41c0.68-1.39,2.46-2.49,2.44-3.98c-0.03-1.71-2.43-2.89-2.74-4.58
		c-0.24-1.35,0.98-2.65,2.54-3.28s3.37-0.7,5.12-0.7c11.33,0.04,29.41,4.17,35.45,6.05C139.13,817.06,142.8,817.53,142.56,821.76z"
		/>
	<path class="st2" d="M330.25,900.39c-14.72,0.83-27.58,14.09-27.68,28.55c-0.1,14.46,12.56,27.89,27.27,28.92
		s29.2-10.49,31.2-24.81C363.05,918.73,352.25,903.81,330.25,900.39z"/>
	<path class="st2" d="M323.81,893.87c-3.97-11.04-7-29.55-5.01-46.03c0.2-1.65,0.45-3.33,1.37-4.79c0.92-1.46,2.65-2.65,4.58-2.6
		c2.65,0.06,4.73,2.33,7.39,2.34c2.49,0.01,4.47-1.96,6.94-2.18c2.36-0.2,4.56,1.32,5.57,3.16c1,1.85,1.05,3.96,1.02,6
		c-0.19,13.4-3.1,26.69-7.24,39.61c-0.93,2.89-2.04,5.93-4.71,7.86C331.05,899.17,325.45,898.45,323.81,893.87z"/>
	<path class="st2" d="M303.48,905.05c-10.05-7.63-23.88-22.34-32.29-37.92c-0.84-1.56-1.66-3.18-1.79-4.95
		c-0.13-1.77,0.59-3.74,2.22-4.72c2.25-1.36,5.36-0.46,7.58-1.86c2.08-1.31,2.52-4.1,4.45-5.6c1.84-1.43,4.61-1.26,6.57-0.16
		c1.96,1.1,3.3,2.93,4.52,4.74c8.02,11.91,13.72,25.17,18.16,38.75c0.99,3.04,1.93,6.31,0.88,9.43S307.64,908.21,303.48,905.05z"/>
	<path class="st2" d="M295.81,921.65c-12.1-1.48-31.04-6.82-46.14-15.27c-1.51-0.84-3.04-1.75-4.1-3.08c-1.06-1.33-1.56-3.2-0.8-4.7
		c1.05-2.07,4-2.76,5-4.85c0.94-1.96-0.23-4.34,0.49-6.39c0.68-1.95,2.97-3.05,5.12-3.07c2.15-0.02,4.2,0.82,6.15,1.7
		c12.82,5.75,24.52,13.59,35.4,22.25c2.43,1.94,4.95,4.09,5.81,7S300.82,922.26,295.81,921.65z"/>
	<path class="st2" d="M346.56,901.81c-3.22-3.84-0.28-8.58,1.1-13.33c3.7-12.78,10.34-24.77,19.32-34.86
		c1.19-1.34,2.47-2.68,4.14-3.4c1.67-0.73,3.83-0.69,5.14,0.54c1.43,1.35,1.55,3.75,3.27,4.75c1.81,1.05,4.45-0.06,6.12,1.19
		c1.01,0.76,1.64,2.35,1.64,3.58c0,1.91-1.19,3.7-1.85,4.75c-8.62,13.72-24.6,30.21-27.89,32.78
		C350.64,903.2,348.45,904.05,346.56,901.81z"/>
	<path class="st2" d="M364.16,931.19c-0.31-3.7,2.26-5.94,7.46-7.35c11.73-3.19,23.63-6.41,35.85-7.15c3.03-0.19,6.18-0.2,8.83,0.82
		c2.65,1.02,4.6,3.34,3.84,5.65c-0.55,1.65-2.37,3.14-2.11,4.79c0.3,1.9,3.19,2.87,3.8,4.71c0.49,1.47-0.68,3.1-2.33,4.02
		s-3.68,1.28-5.64,1.53c-12.74,1.62-33.7-0.34-40.79-1.54C368.75,935.93,364.56,935.95,364.16,931.19z"/>
	<path class="st2" d="M360.77,913.02c-1.91-3.23-0.55-6.3,3.57-9.71c9.29-7.68,18.72-15.45,29.53-21.11c2.68-1.4,5.55-2.7,8.41-2.86
		s5.66,1.15,5.98,3.56c0.23,1.72-0.78,3.81,0.19,5.2c1.11,1.6,4.17,1.3,5.54,2.72c1.09,1.13,0.74,3.09-0.36,4.6
		c-1.1,1.51-2.79,2.66-4.47,3.69c-10.9,6.66-30.86,13.44-37.85,15.23C367.04,915.44,363.23,917.17,360.77,913.02z"/>
	<path class="st2" d="M336.38,965.27c2.32,11.27,2.61,29.67-1.77,45.4c-0.44,1.57-0.93,3.18-2.05,4.47
		c-1.12,1.29-3.01,2.21-4.91,1.9c-2.62-0.42-4.35-2.91-6.97-3.28c-2.46-0.35-4.71,1.3-7.19,1.17c-2.37-0.12-4.33-1.9-5.05-3.84
		c-0.72-1.93-0.46-3.99-0.14-5.97c2.15-12.99,6.97-25.5,12.95-37.49c1.34-2.68,2.89-5.49,5.81-6.99
		C330,959.14,335.42,960.6,336.38,965.27z"/>
	<path class="st2" d="M355.15,958.69c9.67,7.02,22.86,20.71,30.7,35.39c0.78,1.47,1.55,3,1.62,4.69c0.08,1.69-0.68,3.6-2.31,4.59
		c-2.24,1.36-5.28,0.6-7.49,2c-2.07,1.32-2.58,4-4.51,5.5c-1.85,1.43-4.55,1.34-6.45,0.35s-3.16-2.71-4.31-4.41
		c-7.57-11.18-12.81-23.71-16.82-36.6c-0.9-2.88-1.73-5.99-0.62-9.01C346.08,958.17,351.14,955.79,355.15,958.69z"/>
	<path class="st2" d="M365.21,943.04c11.5,1.23,29.43,6.15,43.63,14.22c1.42,0.81,2.86,1.67,3.83,2.97c0.98,1.3,1.41,3.14,0.65,4.64
		c-1.04,2.07-3.88,2.82-4.88,4.9c-0.94,1.96,0.11,4.3-0.62,6.33c-0.7,1.94-2.9,3.08-4.95,3.14c-2.05,0.06-3.99-0.73-5.82-1.56
		c-12.09-5.44-23.06-12.98-33.23-21.35c-2.27-1.87-4.62-3.95-5.37-6.82S360.45,942.54,365.21,943.04z"/>
	<path class="st2" d="M302.58,947.18c0.8,4.87-4.22,7.58-7.88,11.04c-9.85,9.32-21.84,16.54-34.86,21.01
		c-1.73,0.59-3.53,1.14-5.36,0.98c-1.83-0.17-3.68-1.23-4.18-2.93c-0.54-1.85,0.6-4-0.36-5.68c-1.02-1.78-3.89-2.07-4.69-3.95
		c-0.48-1.14-0.2-2.82,0.44-3.89c0.99-1.66,2.95-2.64,4.07-3.24c14.61-7.79,37.03-14.46,41.22-15.12
		C299.77,944.02,302.11,944.33,302.58,947.18z"/>
	<path class="st2" d="M313.6,957.36c2.83,4.11-0.57,8.57-2.41,13.17c-4.95,12.39-12.74,23.72-22.67,32.95
		c-1.32,1.22-2.72,2.44-4.46,3.01c-1.73,0.57-3.88,0.34-5.07-1.01c-1.29-1.47-1.17-3.88-2.78-5.03c-1.7-1.21-4.44-0.34-5.97-1.74
		c-0.93-0.84-1.4-2.49-1.28-3.71c0.19-1.91,1.55-3.58,2.31-4.56c9.94-12.88,27.48-27.85,31-30.11
		C309.68,955.6,311.95,954.95,313.6,957.36z"/>
	<path class="st2" d="M298.04,932.75c-0.21,3.7-3.09,5.59-8.48,6.32c-12.15,1.64-24.46,3.29-36.75,2.45
		c-3.04-0.21-6.19-0.61-8.68-1.96c-2.49-1.35-4.11-3.91-3.02-6.09c0.78-1.56,2.81-2.8,2.78-4.47c-0.03-1.92-2.78-3.25-3.12-5.16
		c-0.28-1.51,1.12-2.98,2.89-3.69s3.84-0.79,5.84-0.78c12.93,0.05,33.54,4.7,40.43,6.81C294.13,927.47,298.31,927.99,298.04,932.75z
		"/>
	<path class="st2" d="M168.18,307.97c-18,1-33.71,16.83-33.84,34.09s15.36,33.3,33.34,34.54c17.98,1.24,35.7-12.52,38.15-29.63
		C208.28,329.87,195.08,312.05,168.18,307.97z"/>
	<path class="st2" d="M160.31,300.19c-4.86-13.19-8.56-35.29-6.12-54.96c0.24-1.97,0.55-3.98,1.67-5.72
		c1.12-1.74,3.24-3.16,5.6-3.11c3.24,0.07,5.79,2.78,9.03,2.79c3.04,0.01,5.46-2.35,8.49-2.6c2.89-0.24,5.58,1.57,6.8,3.78
		c1.22,2.21,1.29,4.73,1.25,7.16c-0.24,16-3.79,31.86-8.85,47.29c-1.13,3.45-2.49,7.09-5.76,9.39
		C169.16,306.51,162.32,305.65,160.31,300.19z"/>
	<path class="st2" d="M135.46,313.53c-12.29-9.11-29.2-26.67-39.47-45.28c-1.03-1.86-2.03-3.79-2.18-5.91s0.73-4.47,2.72-5.64
		c2.75-1.62,6.56-0.55,9.27-2.22c2.54-1.57,3.08-4.9,5.44-6.69c2.25-1.71,5.63-1.5,8.03-0.19c2.4,1.31,4.03,3.5,5.52,5.67
		c9.81,14.23,16.77,30.05,22.21,46.27c1.21,3.63,2.35,7.54,1.07,11.26C146.78,314.52,140.55,317.3,135.46,313.53z"/>
	<path class="st2" d="M126.07,333.35c-14.8-1.76-37.94-8.14-56.41-18.24c-1.84-1.01-3.71-2.09-5.01-3.68
		c-1.29-1.59-1.9-3.82-0.97-5.61c1.28-2.47,4.89-3.3,6.11-5.8c1.14-2.34-0.28-5.19,0.6-7.63c0.84-2.33,3.63-3.64,6.26-3.66
		c2.63-0.02,5.14,0.98,7.52,2.03c15.67,6.86,29.97,16.23,43.28,26.57c2.97,2.31,6.05,4.88,7.1,8.36
		C135.6,329.17,132.2,334.08,126.07,333.35z"/>
	<path class="st2" d="M188.12,309.66c-3.94-4.58-0.34-10.25,1.34-15.92c4.52-15.26,12.64-29.57,23.62-41.63
		c1.45-1.6,3.02-3.2,5.06-4.07c2.04-0.87,4.69-0.82,6.29,0.65c1.75,1.61,1.9,4.48,3.99,5.68c2.21,1.26,5.44-0.08,7.48,1.42
		c1.23,0.9,2,2.81,2,4.28c0,2.29-1.45,4.42-2.26,5.67c-10.54,16.39-30.08,36.08-34.1,39.15
		C193.11,311.33,190.43,312.35,188.12,309.66z"/>
	<path class="st2" d="M209.63,344.75c-0.38-4.42,2.76-7.09,9.13-8.78c14.34-3.81,28.89-7.65,43.83-8.54
		c3.7-0.22,7.56-0.23,10.8,0.98c3.23,1.22,5.62,3.99,4.69,6.74c-0.67,1.97-2.9,3.74-2.58,5.72c0.37,2.27,3.9,3.42,4.65,5.62
		c0.59,1.75-0.84,3.7-2.85,4.81c-2.02,1.1-4.49,1.53-6.9,1.82c-15.57,1.93-41.2-0.41-49.86-1.84
		C215.25,350.41,210.13,350.43,209.63,344.75z"/>
	<path class="st2" d="M205.49,323.05c-2.34-3.85-0.67-7.53,4.36-11.6c11.36-9.17,22.88-18.45,36.09-25.21
		c3.27-1.67,6.78-3.22,10.28-3.41c3.5-0.19,6.92,1.38,7.31,4.25c0.28,2.05-0.96,4.55,0.23,6.21c1.36,1.91,5.1,1.55,6.77,3.25
		c1.33,1.35,0.91,3.69-0.43,5.49s-3.41,3.17-5.47,4.4c-13.32,7.96-37.73,16.05-46.27,18.19C213.16,325.94,208.5,328,205.49,323.05z"
		/>
	<path class="st2" d="M175.68,385.44c2.83,13.46,3.19,35.43-2.16,54.21c-0.53,1.88-1.14,3.79-2.51,5.33
		c-1.37,1.54-3.68,2.64-6.01,2.27c-3.2-0.5-5.31-3.47-8.52-3.92c-3.01-0.42-5.76,1.55-8.79,1.39c-2.9-0.15-5.29-2.27-6.17-4.58
		c-0.88-2.31-0.57-4.77-0.17-7.12c2.63-15.51,8.52-30.45,15.84-44.76c1.64-3.2,3.53-6.55,7.11-8.35
		C167.87,378.12,174.51,379.87,175.68,385.44z"/>
	<path class="st2" d="M198.62,377.59c11.82,8.38,27.95,24.73,37.54,42.26c0.96,1.75,1.89,3.58,1.99,5.6
		c0.09,2.02-0.83,4.3-2.82,5.48c-2.74,1.63-6.45,0.71-9.16,2.39c-2.53,1.57-3.15,4.78-5.52,6.56c-2.26,1.7-5.57,1.6-7.89,0.41
		c-2.32-1.19-3.86-3.24-5.27-5.27c-9.25-13.35-15.66-28.32-20.56-43.71c-1.09-3.44-2.11-7.16-0.75-10.76
		C187.53,376.96,193.72,374.12,198.62,377.59z"/>
	<path class="st2" d="M210.92,358.9c14.06,1.46,35.98,7.34,53.34,16.98c1.73,0.96,3.49,2,4.69,3.55s1.72,3.75,0.8,5.54
		c-1.28,2.47-4.74,3.36-5.96,5.86c-1.15,2.34,0.14,5.13-0.75,7.56c-0.85,2.32-3.54,3.68-6.05,3.75c-2.51,0.07-4.87-0.88-7.12-1.86
		c-14.78-6.5-28.19-15.5-40.63-25.49c-2.78-2.23-5.65-4.72-6.57-8.14S205.1,358.3,210.92,358.9z"/>
	<path class="st2" d="M134.36,363.84c0.98,5.81-5.16,9.05-9.63,13.18c-12.04,11.12-26.69,19.75-42.62,25.09
		c-2.11,0.71-4.32,1.37-6.55,1.17c-2.23-0.2-4.5-1.47-5.11-3.49c-0.66-2.21,0.74-4.77-0.44-6.78c-1.25-2.12-4.76-2.47-5.73-4.72
		c-0.59-1.36-0.24-3.37,0.54-4.64c1.22-1.98,3.61-3.15,4.98-3.87c17.86-9.3,45.27-17.26,50.39-18.05
		C130.92,360.07,133.79,360.44,134.36,363.84z"/>
	<path class="st2" d="M147.83,376c3.46,4.91-0.7,10.23-2.94,15.73c-6.05,14.79-15.58,28.32-27.72,39.35
		c-1.61,1.46-3.33,2.92-5.45,3.6c-2.12,0.68-4.75,0.4-6.19-1.2c-1.58-1.75-1.44-4.63-3.4-6c-2.07-1.45-5.42-0.41-7.3-2.07
		c-1.14-1.01-1.71-2.98-1.56-4.44c0.23-2.28,1.89-4.27,2.82-5.45c12.15-15.38,33.59-33.25,37.9-35.95
		C143.04,373.89,145.81,373.12,147.83,376z"/>
	<path class="st2" d="M128.81,346.61c-0.26,4.42-3.78,6.67-10.37,7.54c-14.85,1.96-29.9,3.93-44.92,2.93
		c-3.72-0.25-7.57-0.72-10.62-2.34c-3.05-1.61-5.03-4.66-3.7-7.27c0.95-1.87,3.43-3.34,3.4-5.34c-0.04-2.29-3.39-3.89-3.82-6.16
		c-0.34-1.81,1.37-3.56,3.54-4.4c2.17-0.84,4.7-0.94,7.14-0.94c15.8,0.05,41.01,5.61,49.43,8.13
		C124.03,340.3,129.14,340.93,128.81,346.61z"/>
	<path class="st2" d="M346.65,569.62c-14.13,0.84-26.46,14.12-26.56,28.62c-0.1,14.49,12.05,27.96,26.17,28.99
		c14.12,1.04,28.02-10.51,29.95-24.87C378.12,588,367.77,573.04,346.65,569.62z"/>
	<path class="st2" d="M340.47,563.08c-3.81-11.07-6.72-29.62-4.81-46.14c0.19-1.65,0.43-3.34,1.31-4.8c0.88-1.46,2.55-2.65,4.4-2.61
		c2.55,0.06,4.54,2.33,7.09,2.34c2.39,0.01,4.29-1.97,6.66-2.18c2.27-0.2,4.38,1.32,5.34,3.17c0.96,1.85,1.01,3.97,0.98,6.01
		c-0.18,13.43-2.97,26.75-6.95,39.7c-0.89,2.89-1.96,5.95-4.52,7.88C347.41,568.39,342.05,567.67,340.47,563.08z"/>
	<path class="st2" d="M320.96,574.28c-9.65-7.65-22.92-22.39-30.99-38.01c-0.81-1.56-1.59-3.18-1.71-4.96s0.57-3.75,2.13-4.74
		c2.16-1.36,5.15-0.46,7.28-1.86c1.99-1.31,2.42-4.11,4.27-5.62c1.77-1.44,4.42-1.26,6.3-0.16c1.88,1.1,3.16,2.94,4.33,4.76
		c7.7,11.94,13.17,25.23,17.43,38.85c0.95,3.04,1.85,6.33,0.84,9.45C329.85,575.12,324.96,577.45,320.96,574.28z"/>
	<path class="st2" d="M313.59,590.92c-11.62-1.48-29.79-6.84-44.28-15.31c-1.45-0.85-2.92-1.75-3.93-3.09s-1.49-3.21-0.77-4.71
		c1-2.07,3.84-2.77,4.8-4.87c0.9-1.96-0.22-4.35,0.47-6.4c0.66-1.95,2.85-3.06,4.91-3.08c2.06-0.02,4.03,0.83,5.9,1.7
		c12.3,5.76,23.53,13.62,33.97,22.31c2.33,1.94,4.75,4.1,5.57,7.02C321.07,587.42,318.4,591.54,313.59,590.92z"/>
	<path class="st2" d="M362.3,571.04c-3.09-3.85-0.27-8.6,1.05-13.36c3.55-12.81,9.93-24.83,18.54-34.94
		c1.14-1.34,2.37-2.68,3.97-3.41c1.6-0.73,3.68-0.69,4.93,0.54c1.37,1.35,1.49,3.76,3.13,4.77c1.73,1.06,4.27-0.06,5.87,1.19
		c0.97,0.76,1.57,2.36,1.57,3.59c0,1.92-1.14,3.71-1.78,4.76c-8.27,13.76-23.61,30.29-26.77,32.86
		C366.22,572.44,364.12,573.29,362.3,571.04z"/>
	<path class="st2" d="M379.19,600.49c-0.3-3.71,2.17-5.95,7.16-7.37c11.26-3.2,22.68-6.42,34.41-7.17c2.9-0.19,5.94-0.2,8.47,0.82
		s4.42,3.35,3.68,5.66c-0.53,1.65-2.28,3.14-2.02,4.8c0.29,1.9,3.06,2.87,3.65,4.72c0.47,1.47-0.66,3.11-2.24,4.03
		c-1.58,0.93-3.53,1.28-5.42,1.53c-12.23,1.62-32.34-0.34-39.14-1.55C383.6,605.24,379.58,605.26,379.19,600.49z"/>
	<path class="st2" d="M375.94,582.28c-1.84-3.23-0.53-6.32,3.43-9.73c8.92-7.7,17.96-15.49,28.34-21.16
		c2.57-1.41,5.33-2.71,8.07-2.86c2.74-0.16,5.43,1.16,5.74,3.57c0.22,1.72-0.75,3.82,0.18,5.22c1.07,1.6,4,1.3,5.31,2.72
		c1.04,1.13,0.71,3.1-0.34,4.61c-1.05,1.51-2.68,2.66-4.29,3.7c-10.46,6.68-29.62,13.47-36.32,15.27
		C381.96,584.7,378.3,586.43,375.94,582.28z"/>
	<path class="st2" d="M352.54,634.65c2.22,11.3,2.5,29.74-1.7,45.51c-0.42,1.58-0.9,3.18-1.97,4.48c-1.08,1.29-2.89,2.21-4.72,1.91
		c-2.51-0.42-4.17-2.91-6.69-3.29c-2.36-0.35-4.52,1.3-6.9,1.17c-2.27-0.12-4.15-1.91-4.84-3.85s-0.44-4-0.13-5.98
		c2.06-13.02,6.69-25.56,12.43-37.58c1.28-2.68,2.77-5.5,5.58-7.01C346.41,628.51,351.62,629.97,352.54,634.65z"/>
	<path class="st2" d="M370.54,628.06c9.28,7.03,21.94,20.76,29.47,35.47c0.75,1.47,1.49,3,1.56,4.7c0.07,1.7-0.65,3.61-2.21,4.6
		c-2.15,1.37-5.06,0.6-7.19,2.01c-1.99,1.32-2.48,4.01-4.33,5.51c-1.77,1.43-4.37,1.34-6.19,0.35c-1.82-1-3.03-2.72-4.14-4.43
		c-7.26-11.21-12.3-23.77-16.14-36.69c-0.86-2.89-1.66-6.01-0.59-9.03C361.84,627.53,366.7,625.14,370.54,628.06z"/>
	<path class="st2" d="M380.2,612.37c11.04,1.23,28.24,6.16,41.87,14.26c1.36,0.81,2.74,1.68,3.68,2.98c0.94,1.3,1.35,3.14,0.63,4.65
		c-1,2.07-3.72,2.82-4.68,4.92c-0.9,1.96,0.11,4.31-0.59,6.35c-0.67,1.95-2.78,3.09-4.75,3.15c-1.97,0.06-3.82-0.74-5.59-1.57
		c-11.6-5.46-22.13-13.01-31.89-21.4c-2.18-1.87-4.44-3.96-5.16-6.84C373,616,375.63,611.86,380.2,612.37z"/>
	<path class="st2" d="M320.1,616.52c0.77,4.88-4.05,7.59-7.56,11.06c-9.45,9.34-20.96,16.58-33.46,21.06
		c-1.66,0.59-3.39,1.15-5.14,0.98s-3.53-1.24-4.01-2.93c-0.52-1.85,0.58-4.01-0.35-5.69c-0.98-1.78-3.74-2.07-4.5-3.96
		c-0.46-1.14-0.19-2.83,0.42-3.9c0.95-1.66,2.83-2.65,3.91-3.25c14.02-7.81,35.54-14.49,39.56-15.15
		C317.4,613.35,319.65,613.66,320.1,616.52z"/>
	<path class="st2" d="M330.68,626.72c2.72,4.12-0.55,8.59-2.31,13.2c-4.75,12.42-12.23,23.77-21.76,33.03
		c-1.26,1.23-2.61,2.45-4.28,3.02s-3.73,0.34-4.86-1.01c-1.24-1.47-1.13-3.89-2.67-5.04c-1.63-1.22-4.26-0.34-5.73-1.74
		c-0.89-0.85-1.34-2.5-1.23-3.72c0.18-1.91,1.49-3.58,2.22-4.57c9.54-12.91,26.37-27.91,29.75-30.18
		C326.91,624.96,329.09,624.31,330.68,626.72z"/>
	<path class="st2" d="M315.74,602.06c-0.2,3.71-2.97,5.6-8.14,6.33c-11.66,1.65-23.48,3.3-35.26,2.46
		c-2.92-0.21-5.94-0.61-8.33-1.96c-2.39-1.35-3.95-3.92-2.9-6.11c0.75-1.57,2.69-2.81,2.67-4.48c-0.03-1.93-2.66-3.26-3-5.17
		c-0.27-1.52,1.08-2.99,2.78-3.69c1.7-0.7,3.69-0.79,5.61-0.79c12.41,0.05,32.19,4.71,38.8,6.82
		C311.99,596.76,316,597.28,315.74,602.06z"/>
	<path class="st2" d="M456.76,88.24c-18.58,1.08-34.79,18.26-34.92,36.99c-0.13,18.73,15.85,36.14,34.41,37.48
		c18.56,1.34,36.84-13.59,39.37-32.15S484.53,92.67,456.76,88.24z"/>
	<path class="st2" d="M448.64,79.8c-5.01-14.31-8.83-38.29-6.32-59.64c0.25-2.13,0.57-4.32,1.73-6.21c1.16-1.89,3.35-3.43,5.78-3.37
		c3.35,0.08,5.97,3.01,9.32,3.03c3.14,0.01,5.64-2.55,8.76-2.82c2.98-0.26,5.76,1.71,7.02,4.1s1.33,5.13,1.29,7.77
		c-0.24,17.36-3.91,34.58-9.13,51.32c-1.17,3.74-2.57,7.69-5.94,10.19C457.77,86.66,450.72,85.72,448.64,79.8z"/>
	<path class="st2" d="M422.99,94.28c-12.69-9.88-30.13-28.95-40.74-49.14c-1.06-2.02-2.1-4.12-2.25-6.41
		c-0.16-2.29,0.75-4.85,2.81-6.12c2.83-1.76,6.77-0.6,9.57-2.41c2.62-1.7,3.18-5.31,5.62-7.26c2.33-1.86,5.81-1.63,8.29-0.21
		s4.16,3.8,5.7,6.15c10.13,15.44,17.31,32.61,22.92,50.22c1.25,3.93,2.43,8.18,1.11,12.22C434.67,95.35,428.24,98.37,422.99,94.28z"
		/>
	<path class="st2" d="M413.31,115.78c-15.27-1.92-39.16-8.84-58.22-19.79c-1.9-1.09-3.83-2.26-5.17-3.99
		c-1.34-1.73-1.96-4.14-1.01-6.09c1.32-2.68,5.05-3.58,6.31-6.29c1.18-2.54-0.28-5.63,0.62-8.28c0.86-2.53,3.75-3.95,6.46-3.98
		c2.71-0.02,5.3,1.07,7.76,2.2c16.17,7.45,30.93,17.61,44.67,28.84c3.07,2.51,6.24,5.3,7.32,9.07
		C423.14,111.25,419.63,116.58,413.31,115.78z"/>
	<path class="st2" d="M477.35,90.08c-4.07-4.97-0.35-11.12,1.38-17.27c4.67-16.56,13.05-32.09,24.37-45.17
		c1.5-1.73,3.12-3.47,5.22-4.41c2.11-0.94,4.84-0.89,6.49,0.7c1.81,1.74,1.96,4.87,4.12,6.16c2.28,1.37,5.62-0.08,7.72,1.54
		c1.27,0.98,2.07,3.05,2.07,4.64c0,2.48-1.5,4.8-2.33,6.16C515.51,60.2,495.34,81.57,491.2,84.9
		C482.49,91.89,479.73,92.99,477.35,90.08z"/>
	<path class="st2" d="M499.55,128.16c-0.4-4.79,2.85-7.69,9.42-9.53c14.8-4.13,29.82-8.3,45.24-9.27c3.82-0.24,7.8-0.25,11.14,1.06
		c3.34,1.32,5.8,4.33,4.84,7.32c-0.69,2.14-2.99,4.06-2.66,6.21c0.38,2.46,4.03,3.72,4.8,6.1c0.61,1.9-0.86,4.02-2.94,5.22
		c-2.08,1.2-4.64,1.66-7.12,1.98c-16.07,2.1-42.53-0.44-51.46-2C505.35,134.3,500.06,134.32,499.55,128.16z"/>
	<path class="st2" d="M495.27,104.61c-2.41-4.18-0.7-8.17,4.5-12.58c11.72-9.95,23.62-20.02,37.25-27.36c3.38-1.82,7-3.5,10.61-3.7
		s7.14,1.5,7.54,4.61c0.29,2.23-0.99,4.94,0.23,6.74c1.4,2.07,5.26,1.68,6.99,3.52c1.37,1.46,0.93,4.01-0.45,5.96
		c-1.38,1.96-3.52,3.44-5.64,4.78c-13.75,8.63-38.94,17.41-47.76,19.74C503.19,107.75,498.37,109.98,495.27,104.61z"/>
	<path class="st2" d="M464.51,172.32c2.92,14.61,3.29,38.45-2.23,58.83c-0.55,2.04-1.18,4.12-2.59,5.79
		c-1.41,1.67-3.8,2.86-6.2,2.47c-3.3-0.54-5.48-3.77-8.8-4.25c-3.1-0.45-5.94,1.68-9.07,1.51c-2.99-0.16-5.46-2.47-6.37-4.97
		s-0.58-5.17-0.17-7.73c2.71-16.84,8.79-33.05,16.34-48.58c1.69-3.47,3.64-7.11,7.33-9.06C456.45,164.37,463.3,166.27,464.51,172.32
		z"/>
	<path class="st2" d="M488.18,163.79c12.2,9.09,28.85,26.83,38.74,45.86c0.99,1.9,1.95,3.88,2.05,6.07c0.1,2.19-0.86,4.67-2.91,5.95
		c-2.83,1.77-6.66,0.77-9.45,2.6c-2.62,1.71-3.26,5.19-5.7,7.12c-2.33,1.85-5.75,1.74-8.14,0.45c-2.39-1.29-3.98-3.52-5.44-5.72
		c-9.55-14.49-16.16-30.73-21.22-47.43c-1.13-3.73-2.18-7.77-0.78-11.67C476.74,163.11,483.13,160.03,488.18,163.79z"/>
	<path class="st2" d="M500.88,143.51c14.51,1.59,37.13,7.96,55.05,18.43c1.79,1.05,3.6,2.17,4.84,3.85
		c1.23,1.68,1.78,4.06,0.82,6.01c-1.32,2.68-4.89,3.65-6.16,6.36c-1.18,2.54,0.14,5.57-0.78,8.21c-0.88,2.52-3.66,3.99-6.25,4.07
		c-2.59,0.08-5.03-0.95-7.35-2.02c-15.25-7.05-29.09-16.82-41.93-27.66c-2.87-2.42-5.83-5.12-6.78-8.84
		C491.41,148.2,494.87,142.86,500.88,143.51z"/>
	<path class="st2" d="M421.86,148.88c1.01,6.31-5.32,9.82-9.94,14.3c-12.43,12.07-27.55,21.43-43.99,27.23
		c-2.18,0.77-4.46,1.48-6.76,1.27s-4.64-1.6-5.27-3.79c-0.68-2.4,0.76-5.18-0.46-7.36c-1.29-2.3-4.91-2.68-5.92-5.12
		c-0.61-1.47-0.25-3.66,0.55-5.04c1.25-2.15,3.73-3.42,5.14-4.2c18.43-10.09,46.73-18.74,52.01-19.59
		C418.31,144.78,421.26,145.18,421.86,148.88z"/>
	<path class="st2" d="M435.77,162.07c3.57,5.33-0.72,11.1-3.04,17.07c-6.24,16.05-16.08,30.73-28.61,42.7
		c-1.66,1.59-3.43,3.17-5.62,3.91c-2.19,0.74-4.9,0.44-6.39-1.3c-1.63-1.9-1.48-5.03-3.51-6.52c-2.14-1.57-5.6-0.44-7.54-2.25
		c-1.17-1.09-1.77-3.23-1.61-4.81c0.24-2.47,1.95-4.63,2.92-5.91c12.54-16.69,34.67-36.09,39.12-39.01
		C430.82,159.79,433.67,158.95,435.77,162.07z"/>
	<path class="st2" d="M416.13,130.18c-0.27,4.8-3.9,7.24-10.7,8.19c-15.32,2.13-30.86,4.26-46.36,3.18
		c-3.84-0.27-7.81-0.78-10.96-2.54c-3.15-1.75-5.19-5.06-3.81-7.89c0.98-2.03,3.54-3.63,3.51-5.8c-0.04-2.49-3.5-4.22-3.94-6.68
		c-0.35-1.96,1.41-3.87,3.65-4.78c2.24-0.91,4.85-1.02,7.37-1.01c16.31,0.06,42.32,6.09,51.02,8.82
		C411.19,123.33,416.47,124.01,416.13,130.18z"/>
	<path class="st2" d="M1459.04,102.44c-19.23,1.11-36.02,18.78-36.16,38.04s16.41,37.16,35.62,38.54
		c19.21,1.38,38.15-13.97,40.76-33.06S1487.79,106.99,1459.04,102.44z"/>
	<path class="st2" d="M1450.63,93.76c-5.19-14.71-9.15-39.38-6.54-61.33c0.26-2.19,0.59-4.44,1.79-6.38s3.47-3.53,5.98-3.47
		c3.47,0.08,6.18,3.1,9.65,3.11c3.25,0.01,5.83-2.62,9.07-2.9c3.09-0.27,5.96,1.75,7.27,4.22s1.37,5.28,1.34,7.99
		c-0.25,17.85-4.05,35.56-9.46,52.77c-1.21,3.85-2.67,7.91-6.15,10.47S1452.78,99.85,1450.63,93.76z"/>
	<path class="st2" d="M1424.07,108.65c-13.13-10.16-31.2-29.77-42.18-50.52c-1.1-2.07-2.17-4.23-2.33-6.59
		c-0.16-2.36,0.78-4.98,2.91-6.3c2.93-1.81,7.01-0.61,9.9-2.48c2.71-1.75,3.29-5.46,5.81-7.46c2.41-1.91,6.02-1.68,8.58-0.22
		c2.56,1.46,4.3,3.91,5.9,6.32c10.48,15.88,17.92,33.54,23.73,51.64c1.3,4.05,2.52,8.41,1.15,12.56
		C1436.17,109.75,1429.51,112.86,1424.07,108.65z"/>
	<path class="st2" d="M1414.05,130.76c-15.81-1.97-40.55-9.09-60.28-20.35c-1.97-1.13-3.97-2.33-5.35-4.1
		c-1.38-1.77-2.03-4.26-1.04-6.26c1.37-2.76,5.23-3.68,6.53-6.47c1.22-2.61-0.29-5.79,0.64-8.51c0.89-2.6,3.88-4.07,6.69-4.09
		c2.81-0.02,5.49,1.1,8.04,2.26c16.74,7.66,32.03,18.11,46.25,29.65c3.18,2.58,6.46,5.45,7.58,9.33
		C1424.22,126.1,1420.6,131.58,1414.05,130.76z"/>
	<path class="st2" d="M1480.35,104.33c-4.21-5.11-0.36-11.44,1.43-17.76c4.83-17.03,13.51-33,25.24-46.45
		c1.55-1.78,3.23-3.57,5.41-4.54c2.18-0.97,5.01-0.92,6.72,0.72c1.87,1.79,2.03,5,4.27,6.33c2.36,1.4,5.81-0.08,7.99,1.58
		c1.32,1.01,2.14,3.14,2.14,4.77c0,2.55-1.55,4.93-2.42,6.33c-11.26,18.29-32.14,40.26-36.43,43.68
		C1485.68,106.19,1482.82,107.32,1480.35,104.33z"/>
	<path class="st2" d="M1503.34,143.49c-0.41-4.93,2.95-7.91,9.75-9.79c15.33-4.25,30.87-8.54,46.83-9.53
		c3.95-0.25,8.08-0.26,11.54,1.09s6.01,4.45,5.01,7.52c-0.71,2.2-3.1,4.18-2.75,6.38c0.39,2.53,4.17,3.82,4.97,6.27
		c0.64,1.95-0.89,4.13-3.05,5.36s-4.8,1.7-7.37,2.03c-16.64,2.16-44.03-0.45-53.28-2.06
		C1509.34,149.8,1503.87,149.82,1503.34,143.49z"/>
	<path class="st2" d="M1498.91,119.27c-2.5-4.3-0.72-8.4,4.66-12.94c12.14-10.23,24.45-20.58,38.57-28.13
		c3.5-1.87,7.25-3.6,10.98-3.81c3.74-0.21,7.4,1.54,7.81,4.74c0.3,2.29-1.02,5.08,0.24,6.93c1.45,2.13,5.45,1.73,7.23,3.62
		c1.42,1.51,0.97,4.12-0.46,6.13c-1.43,2.01-3.64,3.54-5.84,4.91c-14.24,8.88-40.32,17.91-49.45,20.3
		C1507.11,122.5,1502.12,124.8,1498.91,119.27z"/>
	<path class="st2" d="M1467.06,188.9c3.03,15.02,3.41,39.53-2.31,60.5c-0.57,2.09-1.22,4.23-2.68,5.95
		c-1.46,1.72-3.94,2.94-6.42,2.54c-3.42-0.56-5.68-3.87-9.11-4.37c-3.21-0.46-6.15,1.73-9.39,1.56c-3.09-0.17-5.65-2.54-6.59-5.11
		c-0.94-2.58-0.6-5.32-0.18-7.95c2.81-17.31,9.1-33.98,16.92-49.95c1.75-3.57,3.77-7.31,7.59-9.32
		C1458.71,180.72,1465.8,182.68,1467.06,188.9z"/>
	<path class="st2" d="M1491.57,180.13c12.63,9.35,29.86,27.59,40.11,47.16c1.02,1.95,2.02,3.99,2.12,6.25
		c0.1,2.25-0.89,4.8-3.01,6.12c-2.93,1.82-6.89,0.8-9.79,2.67c-2.71,1.75-3.37,5.33-5.9,7.33c-2.41,1.9-5.95,1.79-8.43,0.46
		c-2.48-1.33-4.13-3.62-5.63-5.88c-9.88-14.9-16.74-31.6-21.97-48.77c-1.17-3.84-2.25-7.99-0.8-12
		C1479.72,179.43,1486.34,176.25,1491.57,180.13z"/>
	<path class="st2" d="M1504.71,159.28c15.03,1.63,38.45,8.19,57,18.95c1.85,1.07,3.73,2.23,5.01,3.96s1.84,4.18,0.85,6.18
		c-1.36,2.76-5.07,3.75-6.37,6.54c-1.22,2.61,0.15,5.73-0.8,8.44c-0.91,2.59-3.79,4.1-6.47,4.18c-2.68,0.08-5.21-0.98-7.61-2.08
		c-15.79-7.25-30.12-17.29-43.42-28.44c-2.97-2.49-6.04-5.27-7.02-9.09S1498.49,158.6,1504.71,159.28z"/>
	<path class="st2" d="M1422.9,164.79c1.05,6.48-5.51,10.09-10.29,14.71c-12.86,12.41-28.53,22.04-45.54,28
		c-2.25,0.79-4.61,1.52-7,1.3c-2.38-0.22-4.81-1.64-5.46-3.9c-0.71-2.47,0.79-5.33-0.47-7.57c-1.33-2.37-5.08-2.76-6.12-5.26
		c-0.63-1.52-0.26-3.76,0.57-5.18c1.3-2.21,3.86-3.52,5.32-4.31c19.08-10.38,48.38-19.27,53.84-20.14
		C1419.23,160.58,1422.29,160.99,1422.9,164.79z"/>
	<path class="st2" d="M1437.3,178.36c3.7,5.48-0.75,11.42-3.15,17.55c-6.46,16.5-16.65,31.6-29.62,43.91
		c-1.72,1.63-3.56,3.25-5.82,4.02c-2.26,0.76-5.07,0.45-6.62-1.34c-1.69-1.96-1.53-5.17-3.63-6.7c-2.22-1.62-5.8-0.45-7.8-2.31
		c-1.21-1.13-1.83-3.32-1.67-4.95c0.25-2.54,2.02-4.76,3.02-6.08c12.98-17.16,35.89-37.11,40.5-40.12
		C1432.18,176.01,1435.13,175.14,1437.3,178.36z"/>
	<path class="st2" d="M1416.97,145.56c-0.28,4.94-4.04,7.45-11.08,8.42c-15.87,2.19-31.96,4.38-48,3.27
		c-3.97-0.28-8.09-0.81-11.35-2.61s-5.37-5.2-3.95-8.12c1.02-2.08,3.67-3.73,3.63-5.96c-0.04-2.56-3.63-4.34-4.08-6.87
		c-0.36-2.02,1.46-3.98,3.78-4.91s5.02-1.05,7.63-1.04c16.89,0.06,43.82,6.26,52.82,9.07
		C1411.86,138.52,1417.32,139.22,1416.97,145.56z"/>
	<path class="st2" d="M1448.34,631.19c-16.82,0.96-31.5,16.19-31.62,32.81c-0.12,16.61,14.35,32.05,31.15,33.24
		c16.8,1.19,33.35-12.05,35.64-28.51C1485.81,652.27,1473.48,635.12,1448.34,631.19z"/>
	<path class="st2" d="M1440.99,623.71c-4.54-12.69-8-33.96-5.72-52.89c0.23-1.89,0.51-3.83,1.56-5.5s3.03-3.04,5.23-2.99
		c3.03,0.07,5.41,2.67,8.44,2.68c2.84,0.01,5.1-2.26,7.93-2.5c2.7-0.23,5.21,1.51,6.36,3.64c1.14,2.12,1.2,4.55,1.17,6.89
		c-0.22,15.4-3.54,30.67-8.27,45.51c-1.06,3.32-2.33,6.82-5.38,9.03S1442.87,628.96,1440.99,623.71z"/>
	<path class="st2" d="M1417.77,636.55c-11.48-8.76-27.28-25.67-36.88-43.57c-0.96-1.79-1.9-3.65-2.04-5.68
		c-0.14-2.03,0.68-4.3,2.54-5.43c2.57-1.56,6.13-0.53,8.66-2.14c2.37-1.51,2.88-4.71,5.08-6.44c2.11-1.65,5.26-1.45,7.5-0.19
		c2.24,1.26,3.76,3.37,5.16,5.45c9.17,13.69,15.67,28.92,20.75,44.53c1.13,3.49,2.2,7.26,1,10.83S1422.52,640.18,1417.77,636.55z"/>
	<path class="st2" d="M1409,655.62c-13.82-1.7-35.45-7.84-52.7-17.55c-1.72-0.97-3.47-2.01-4.68-3.54c-1.21-1.53-1.78-3.68-0.91-5.4
		c1.19-2.38,4.57-3.18,5.71-5.58c1.07-2.25-0.26-4.99,0.56-7.34c0.78-2.24,3.39-3.51,5.85-3.53s4.8,0.95,7.03,1.95
		c14.64,6.61,28,15.62,40.44,25.57c2.78,2.22,5.65,4.7,6.63,8.04S1414.73,656.32,1409,655.62z"/>
	<path class="st2" d="M1466.98,632.82c-3.68-4.41-0.32-9.86,1.25-15.32c4.23-14.69,11.81-28.46,22.06-40.06
		c1.36-1.54,2.82-3.08,4.73-3.91c1.91-0.83,4.38-0.79,5.87,0.62c1.63,1.55,1.77,4.32,3.73,5.46c2.06,1.21,5.08-0.07,6.99,1.36
		c1.15,0.87,1.87,2.71,1.87,4.12c0,2.2-1.36,4.25-2.11,5.46c-9.85,15.77-28.1,34.72-31.86,37.67
		C1471.64,634.43,1469.13,635.41,1466.98,632.82z"/>
	<path class="st2" d="M1487.07,666.59c-0.36-4.25,2.58-6.82,8.53-8.45c13.4-3.66,26.99-7.36,40.95-8.22
		c3.46-0.21,7.06-0.23,10.09,0.94c3.02,1.17,5.25,3.84,4.38,6.49c-0.62,1.9-2.71,3.6-2.41,5.51c0.34,2.18,3.65,3.3,4.35,5.41
		c0.56,1.68-0.78,3.56-2.66,4.62c-1.88,1.06-4.2,1.47-6.45,1.76c-14.55,1.86-38.5-0.39-46.59-1.78
		C1492.33,672.04,1487.54,672.06,1487.07,666.59z"/>
	<path class="st2" d="M1483.2,645.71c-2.18-3.71-0.63-7.25,4.08-11.16c10.61-8.82,21.38-17.75,33.72-24.26
		c3.06-1.61,6.34-3.1,9.6-3.28c3.27-0.18,6.47,1.33,6.83,4.09c0.26,1.98-0.89,4.38,0.21,5.98c1.27,1.84,4.76,1.49,6.33,3.12
		c1.24,1.3,0.85,3.55-0.41,5.29s-3.18,3.05-5.11,4.24c-12.45,7.66-35.25,15.44-43.23,17.51
		C1490.37,648.49,1486.01,650.47,1483.2,645.71z"/>
	<path class="st2" d="M1455.35,705.76c2.65,12.95,2.98,34.09-2.02,52.17c-0.5,1.81-1.07,3.65-2.35,5.13
		c-1.28,1.48-3.44,2.54-5.61,2.19c-2.99-0.48-4.96-3.34-7.96-3.77c-2.81-0.4-5.38,1.49-8.21,1.34c-2.71-0.14-4.94-2.19-5.76-4.41
		c-0.82-2.22-0.53-4.59-0.16-6.86c2.45-14.93,7.96-29.31,14.8-43.08c1.53-3.08,3.3-6.3,6.64-8.04
		C1448.06,698.71,1454.26,700.39,1455.35,705.76z"/>
	<path class="st2" d="M1476.78,698.19c11.05,8.06,26.11,23.8,35.07,40.67c0.9,1.69,1.77,3.44,1.86,5.39
		c0.09,1.94-0.78,4.14-2.63,5.28c-2.56,1.57-6.03,0.69-8.56,2.3c-2.37,1.51-2.95,4.6-5.16,6.32c-2.11,1.64-5.2,1.54-7.37,0.4
		c-2.17-1.14-3.61-3.12-4.92-5.07c-8.64-12.85-14.63-27.25-19.21-42.06c-1.02-3.31-1.97-6.89-0.7-10.35
		S1472.21,694.85,1476.78,698.19z"/>
	<path class="st2" d="M1488.28,680.21c13.14,1.41,33.61,7.06,49.84,16.34c1.62,0.93,3.26,1.92,4.38,3.41
		c1.12,1.49,1.61,3.6,0.74,5.33c-1.19,2.38-4.43,3.24-5.57,5.64c-1.07,2.25,0.13,4.94-0.7,7.28c-0.8,2.23-3.31,3.54-5.65,3.61
		c-2.34,0.07-4.55-0.84-6.65-1.79c-13.81-6.25-26.34-14.92-37.96-24.53c-2.6-2.15-5.28-4.54-6.14-7.84
		S1482.84,679.63,1488.28,680.21z"/>
	<path class="st2" d="M1416.74,684.97c0.92,5.59-4.82,8.71-9,12.68c-11.25,10.71-24.94,19.01-39.82,24.14
		c-1.97,0.68-4.04,1.31-6.12,1.12c-2.08-0.19-4.2-1.42-4.77-3.36c-0.62-2.13,0.69-4.59-0.41-6.53c-1.17-2.04-4.45-2.38-5.36-4.54
		c-0.55-1.31-0.23-3.25,0.5-4.47c1.14-1.91,3.37-3.04,4.65-3.72c16.68-8.95,42.3-16.61,47.08-17.37
		C1413.53,681.34,1416.21,681.69,1416.74,684.97z"/>
	<path class="st2" d="M1429.33,696.67c3.23,4.73-0.65,9.85-2.75,15.14c-5.65,14.23-14.55,27.26-25.9,37.87
		c-1.5,1.41-3.11,2.81-5.09,3.46c-1.98,0.66-4.44,0.39-5.79-1.16c-1.48-1.69-1.34-4.46-3.18-5.78c-1.94-1.39-5.07-0.39-6.82-2
		c-1.06-0.97-1.6-2.86-1.46-4.27c0.22-2.19,1.77-4.11,2.64-5.24c11.35-14.8,31.38-32,35.41-34.6
		C1424.85,694.64,1427.44,693.9,1429.33,696.67z"/>
	<path class="st2" d="M1411.56,668.39c-0.24,4.26-3.53,6.42-9.69,7.26c-13.87,1.89-27.94,3.78-41.97,2.82
		c-3.47-0.24-7.07-0.7-9.92-2.25c-2.85-1.55-4.7-4.49-3.45-7c0.89-1.8,3.21-3.22,3.18-5.14c-0.04-2.21-3.17-3.74-3.57-5.93
		c-0.32-1.74,1.28-3.43,3.31-4.24c2.03-0.81,4.39-0.91,6.67-0.9c14.76,0.05,38.31,5.4,46.18,7.82
		C1407.09,662.31,1411.87,662.91,1411.56,668.39z"/>
	<path class="st2" d="M962.13,542.95c-12.91,0.74-24.18,12.52-24.27,25.37c-0.09,12.85,11.01,24.78,23.91,25.7
		s25.6-9.32,27.36-22.05S981.42,545.98,962.13,542.95z"/>
	<path class="st2" d="M956.48,537.16c-3.48-9.81-6.14-26.26-4.39-40.9c0.17-1.46,0.4-2.96,1.2-4.26c0.8-1.29,2.33-2.35,4.02-2.31
		c2.33,0.05,4.15,2.07,6.48,2.08c2.18,0.01,3.92-1.75,6.09-1.94c2.07-0.18,4,1.17,4.88,2.81c0.88,1.64,0.92,3.52,0.9,5.33
		c-0.17,11.91-2.72,23.71-6.35,35.2c-0.81,2.57-1.79,5.27-4.13,6.99C962.83,541.86,957.93,541.22,956.48,537.16z"/>
	<path class="st2" d="M938.66,547.09c-8.82-6.78-20.94-19.85-28.31-33.7c-0.74-1.38-1.46-2.82-1.57-4.4
		c-0.11-1.57,0.52-3.32,1.95-4.2c1.97-1.21,4.7-0.41,6.65-1.65c1.82-1.17,2.21-3.64,3.9-4.98c1.62-1.27,4.04-1.12,5.76-0.14
		c1.72,0.98,2.89,2.61,3.96,4.22c7.04,10.59,12.03,22.37,15.93,34.44c0.87,2.7,1.69,5.61,0.77,8.38
		C946.78,547.82,942.31,549.89,938.66,547.09z"/>
	<path class="st2" d="M931.93,561.83c-10.61-1.31-27.21-6.06-40.46-13.57c-1.32-0.75-2.66-1.55-3.59-2.74
		c-0.93-1.18-1.36-2.84-0.7-4.18c0.92-1.84,3.51-2.46,4.39-4.31c0.82-1.74-0.2-3.86,0.43-5.67c0.6-1.73,2.6-2.71,4.49-2.73
		s3.68,0.73,5.39,1.51c11.24,5.11,21.5,12.08,31.04,19.78c2.13,1.72,4.34,3.63,5.09,6.22S936.32,562.38,931.93,561.83z"/>
	<path class="st2" d="M976.43,544.2c-2.83-3.41-0.24-7.63,0.96-11.85c3.24-11.36,9.07-22.01,16.94-30.98
		c1.04-1.19,2.16-2.38,3.63-3.03c1.46-0.65,3.36-0.61,4.51,0.48c1.25,1.2,1.36,3.34,2.86,4.22c1.59,0.94,3.9-0.06,5.36,1.05
		c0.88,0.67,1.44,2.09,1.44,3.18c0,1.7-1.04,3.29-1.62,4.22c-7.56,12.2-21.57,26.85-24.45,29.13
		C980.01,545.45,978.09,546.2,976.43,544.2z"/>
	<path class="st2" d="M991.86,570.32c-0.28-3.29,1.98-5.27,6.55-6.53c10.29-2.83,20.72-5.69,31.43-6.36
		c2.65-0.16,5.42-0.17,7.74,0.73s4.03,2.97,3.36,5.02c-0.48,1.47-2.08,2.79-1.85,4.26c0.26,1.69,2.8,2.55,3.34,4.18
		c0.43,1.3-0.6,2.76-2.05,3.58s-3.22,1.14-4.95,1.36c-11.17,1.44-29.55-0.3-35.76-1.37C995.89,574.53,992.21,574.54,991.86,570.32z"
		/>
	<path class="st2" d="M988.89,554.17c-1.68-2.87-0.48-5.6,3.13-8.63c8.15-6.82,16.41-13.73,25.89-18.76
		c2.35-1.25,4.87-2.4,7.37-2.54c2.51-0.14,4.96,1.03,5.24,3.16c0.2,1.53-0.69,3.39,0.16,4.62c0.97,1.42,3.66,1.15,4.86,2.42
		c0.95,1,0.65,2.75-0.31,4.09c-0.96,1.34-2.44,2.36-3.92,3.28c-9.56,5.92-27.06,11.94-33.19,13.54
		C994.39,556.32,991.04,557.86,988.89,554.17z"/>
	<path class="st2" d="M967.51,600.6c2.03,10.02,2.29,26.36-1.55,40.35c-0.38,1.4-0.82,2.82-1.8,3.97c-0.98,1.15-2.64,1.96-4.31,1.69
		c-2.3-0.37-3.81-2.58-6.11-2.91c-2.16-0.31-4.13,1.15-6.3,1.04c-2.08-0.11-3.79-1.69-4.42-3.41c-0.63-1.72-0.41-3.55-0.12-5.3
		c1.88-11.55,6.11-22.66,11.36-33.31c1.17-2.38,2.53-4.88,5.1-6.21C961.91,595.15,966.67,596.46,967.51,600.6z"/>
	<path class="st2" d="M983.96,594.76c8.48,6.23,20.05,18.4,26.92,31.45c0.69,1.3,1.36,2.66,1.42,4.17c0.07,1.5-0.6,3.2-2.02,4.08
		c-1.96,1.21-4.63,0.53-6.57,1.78c-1.82,1.17-2.26,3.56-3.96,4.89c-1.62,1.27-3.99,1.19-5.66,0.31c-1.66-0.88-2.77-2.41-3.78-3.92
		c-6.63-9.94-11.23-21.07-14.75-32.53c-0.79-2.56-1.51-5.33-0.54-8C976.01,594.29,980.45,592.17,983.96,594.76z"/>
	<path class="st2" d="M992.78,580.85c10.09,1.09,25.8,5.46,38.26,12.64c1.24,0.72,2.5,1.49,3.36,2.64c0.86,1.15,1.24,2.79,0.57,4.12
		c-0.92,1.84-3.4,2.5-4.28,4.36c-0.82,1.74,0.1,3.82-0.54,5.63c-0.61,1.73-2.54,2.74-4.34,2.79c-1.8,0.05-3.49-0.65-5.11-1.39
		c-10.6-4.84-20.22-11.53-29.14-18.97c-1.99-1.66-4.05-3.51-4.71-6.06C986.2,584.06,988.61,580.4,992.78,580.85z"/>
	<path class="st2" d="M937.87,584.53c0.7,4.32-3.7,6.73-6.91,9.81c-8.63,8.28-19.15,14.7-30.57,18.67c-1.51,0.53-3.1,1.02-4.7,0.87
		c-1.6-0.15-3.23-1.1-3.66-2.6c-0.48-1.64,0.53-3.55-0.32-5.05c-0.89-1.58-3.41-1.84-4.11-3.51c-0.42-1.01-0.17-2.51,0.39-3.46
		c0.87-1.48,2.59-2.35,3.57-2.88c12.81-6.92,32.47-12.85,36.14-13.43C935.41,581.72,937.46,581.99,937.87,584.53z"/>
	<path class="st2" d="M947.54,593.57c2.48,3.65-0.5,7.62-2.11,11.7c-4.34,11.01-11.17,21.08-19.88,29.28
		c-1.15,1.09-2.39,2.17-3.91,2.68s-3.41,0.3-4.44-0.89c-1.13-1.31-1.03-3.45-2.44-4.47c-1.49-1.08-3.89-0.3-5.24-1.54
		c-0.82-0.75-1.23-2.21-1.12-3.3c0.17-1.69,1.36-3.18,2.03-4.05c8.71-11.45,24.09-24.75,27.18-26.75
		C944.1,592.01,946.08,591.43,947.54,593.57z"/>
	<path class="st2" d="M933.89,571.71c-0.19,3.29-2.71,4.97-7.44,5.61c-10.65,1.46-21.45,2.92-32.22,2.18
		c-2.67-0.18-5.43-0.54-7.61-1.74c-2.19-1.2-3.61-3.47-2.65-5.41c0.68-1.39,2.46-2.49,2.44-3.98c-0.03-1.71-2.43-2.89-2.74-4.58
		c-0.24-1.35,0.98-2.65,2.54-3.28c1.56-0.62,3.37-0.7,5.12-0.7c11.33,0.04,29.41,4.17,35.45,6.05
		C930.46,567.01,934.13,567.47,933.89,571.71z"/>
	<path class="st2" d="M1121.58,650.34c-14.72,0.83-27.58,14.09-27.68,28.55c-0.1,14.46,12.56,27.89,27.27,28.92
		c14.71,1.03,29.2-10.49,31.2-24.81C1154.37,668.67,1143.58,653.75,1121.58,650.34z"/>
	<path class="st2" d="M1115.14,643.82c-3.97-11.04-7-29.55-5.01-46.03c0.2-1.65,0.45-3.33,1.37-4.79s2.65-2.65,4.58-2.6
		c2.65,0.06,4.73,2.33,7.39,2.34c2.49,0.01,4.47-1.96,6.94-2.18c2.36-0.2,4.56,1.32,5.57,3.17c1,1.85,1.05,3.96,1.02,6
		c-0.19,13.4-3.1,26.69-7.24,39.61c-0.93,2.89-2.04,5.93-4.71,7.86C1122.37,649.11,1116.78,648.39,1115.14,643.82z"/>
	<path class="st2" d="M1094.81,654.99c-10.05-7.63-23.88-22.34-32.29-37.92c-0.84-1.56-1.66-3.18-1.79-4.95s0.59-3.74,2.22-4.72
		c2.25-1.36,5.36-0.46,7.58-1.86c2.08-1.31,2.52-4.1,4.45-5.6c1.84-1.43,4.61-1.26,6.57-0.16c1.96,1.1,3.3,2.93,4.52,4.74
		c8.02,11.91,13.72,25.17,18.16,38.75c0.99,3.04,1.93,6.31,0.88,9.43C1104.07,655.82,1098.97,658.15,1094.81,654.99z"/>
	<path class="st2" d="M1087.13,671.59c-12.1-1.48-31.04-6.82-46.14-15.27c-1.51-0.84-3.04-1.75-4.1-3.08
		c-1.06-1.33-1.56-3.2-0.8-4.7c1.05-2.07,4-2.76,5-4.85c0.94-1.96-0.23-4.34,0.49-6.39c0.68-1.95,2.97-3.05,5.12-3.07
		c2.15-0.02,4.2,0.82,6.15,1.7c12.82,5.75,24.52,13.59,35.4,22.25c2.43,1.94,4.95,4.09,5.81,7S1092.15,672.2,1087.13,671.59z"/>
	<path class="st2" d="M1137.89,651.75c-3.22-3.84-0.28-8.58,1.1-13.33c3.7-12.78,10.34-24.77,19.32-34.86
		c1.19-1.34,2.47-2.68,4.14-3.4c1.67-0.73,3.83-0.69,5.14,0.54c1.43,1.35,1.55,3.75,3.27,4.75c1.81,1.05,4.45-0.06,6.12,1.19
		c1.01,0.76,1.64,2.35,1.64,3.58c0,1.91-1.19,3.7-1.85,4.75c-8.62,13.72-24.6,30.21-27.89,32.78
		C1141.97,653.15,1139.78,654,1137.89,651.75z"/>
	<path class="st2" d="M1155.49,681.14c-0.31-3.7,2.26-5.94,7.46-7.35c11.73-3.19,23.63-6.41,35.85-7.15
		c3.03-0.19,6.18-0.2,8.83,0.82s4.6,3.34,3.84,5.65c-0.55,1.65-2.37,3.14-2.11,4.79c0.3,1.9,3.19,2.87,3.8,4.71
		c0.49,1.47-0.68,3.1-2.33,4.02s-3.68,1.28-5.64,1.53c-12.74,1.62-33.7-0.34-40.79-1.54
		C1160.08,685.88,1155.89,685.89,1155.49,681.14z"/>
	<path class="st2" d="M1152.1,662.97c-1.91-3.23-0.55-6.3,3.57-9.71c9.29-7.68,18.72-15.45,29.53-21.11c2.68-1.4,5.55-2.7,8.41-2.86
		c2.86-0.16,5.66,1.15,5.98,3.56c0.23,1.72-0.78,3.81,0.19,5.2c1.11,1.6,4.17,1.3,5.54,2.72c1.09,1.13,0.74,3.09-0.36,4.6
		c-1.1,1.51-2.79,2.66-4.47,3.69c-10.9,6.66-30.86,13.44-37.85,15.23C1158.37,665.39,1154.55,667.11,1152.1,662.97z"/>
	<path class="st2" d="M1127.71,715.22c2.32,11.27,2.61,29.67-1.77,45.4c-0.44,1.57-0.93,3.18-2.05,4.47s-3.01,2.21-4.91,1.9
		c-2.62-0.42-4.35-2.91-6.97-3.28c-2.46-0.35-4.71,1.3-7.19,1.17c-2.37-0.12-4.33-1.9-5.05-3.84c-0.72-1.93-0.46-3.99-0.14-5.97
		c2.15-12.99,6.97-25.5,12.95-37.49c1.34-2.68,2.89-5.49,5.81-6.99C1121.33,709.08,1126.75,710.55,1127.71,715.22z"/>
	<path class="st2" d="M1146.47,708.64c9.67,7.02,22.86,20.71,30.7,35.39c0.78,1.47,1.55,3,1.62,4.69c0.08,1.69-0.68,3.6-2.31,4.59
		c-2.24,1.36-5.28,0.6-7.49,2c-2.07,1.32-2.58,4-4.51,5.5c-1.85,1.43-4.55,1.34-6.45,0.35c-1.9-1-3.16-2.71-4.31-4.41
		c-7.57-11.18-12.81-23.71-16.82-36.6c-0.9-2.88-1.73-5.99-0.62-9.01C1137.41,708.11,1142.47,705.73,1146.47,708.64z"/>
	<path class="st2" d="M1156.54,692.99c11.5,1.23,29.43,6.15,43.63,14.22c1.42,0.81,2.86,1.67,3.83,2.97
		c0.98,1.3,1.41,3.14,0.65,4.64c-1.04,2.07-3.88,2.82-4.88,4.9c-0.94,1.96,0.11,4.3-0.62,6.33c-0.7,1.94-2.9,3.08-4.95,3.14
		s-3.99-0.73-5.82-1.56c-12.09-5.44-23.06-12.98-33.23-21.35c-2.27-1.87-4.62-3.95-5.37-6.82
		C1149.03,696.6,1151.78,692.48,1156.54,692.99z"/>
	<path class="st2" d="M1093.91,697.13c0.8,4.87-4.22,7.58-7.88,11.04c-9.85,9.32-21.84,16.54-34.86,21.01
		c-1.73,0.59-3.53,1.14-5.36,0.98c-1.83-0.17-3.68-1.23-4.18-2.93c-0.54-1.85,0.6-4-0.36-5.68c-1.02-1.78-3.89-2.07-4.69-3.95
		c-0.48-1.14-0.2-2.82,0.44-3.89c0.99-1.66,2.95-2.64,4.07-3.24c14.61-7.79,37.03-14.46,41.22-15.12
		C1091.1,693.97,1093.44,694.28,1093.91,697.13z"/>
	<path class="st2" d="M1104.93,707.31c2.83,4.11-0.57,8.57-2.41,13.17c-4.95,12.39-12.74,23.72-22.67,32.95
		c-1.32,1.22-2.72,2.44-4.46,3.01c-1.73,0.57-3.88,0.34-5.07-1.01c-1.29-1.47-1.17-3.88-2.78-5.03c-1.7-1.21-4.44-0.34-5.97-1.74
		c-0.93-0.84-1.4-2.49-1.28-3.71c0.19-1.91,1.55-3.58,2.31-4.56c9.94-12.88,27.48-27.85,31-30.11
		C1101.01,705.55,1103.28,704.9,1104.93,707.31z"/>
	<path class="st2" d="M1089.37,682.7c-0.21,3.7-3.09,5.59-8.48,6.32c-12.15,1.64-24.46,3.29-36.75,2.45
		c-3.04-0.21-6.19-0.61-8.68-1.96c-2.49-1.35-4.11-3.91-3.02-6.09c0.78-1.56,2.81-2.8,2.78-4.47c-0.03-1.92-2.78-3.25-3.12-5.16
		c-0.28-1.51,1.12-2.98,2.89-3.69c1.77-0.7,3.84-0.79,5.84-0.78c12.93,0.05,33.54,4.7,40.43,6.81
		C1085.46,677.41,1089.64,677.94,1089.37,682.7z"/>
	<path class="st2" d="M1754.99,331.15c5.16-11.86-0.28-27.23-11.71-33.1s-27.09-1.34-33.72,9.76c-6.63,11.1-3.22,27.06,7.35,34.36
		C1727.48,349.48,1743.58,347.01,1754.99,331.15z"/>
	<path class="st2" d="M1762.7,328.72c10.33,1.31,26.21,6.35,38.49,14.51c1.23,0.81,2.47,1.69,3.26,2.99s1.05,3.14,0.26,4.63
		c-1.09,2.05-3.72,2.77-4.77,4.85c-0.99,1.94-0.21,4.28-1.01,6.31c-0.77,1.93-2.85,3.05-4.71,3.09c-1.86,0.04-3.56-0.76-5.16-1.6
		c-10.55-5.52-19.95-13.11-28.56-21.53c-1.92-1.88-3.9-3.97-4.37-6.84C1755.64,332.27,1758.42,328.18,1762.7,328.72z"/>
	<path class="st2" d="M1761.87,308.33c10.02-4.82,27.16-9.75,42.84-10.09c1.57-0.03,3.18-0.03,4.63,0.58
		c1.45,0.61,2.73,1.96,2.87,3.63c0.19,2.3-1.75,4.38-1.52,6.68c0.22,2.15,2.26,3.61,2.69,5.73c0.41,2.02-0.82,4.11-2.47,5.21
		c-1.65,1.1-3.63,1.4-5.55,1.63c-12.62,1.51-25.39,0.66-37.92-1.3c-2.8-0.44-5.77-1.02-7.83-3.09
		C1757.55,315.25,1757.72,310.33,1761.87,308.33z"/>
	<path class="st2" d="M1751.73,295.68c5.95-8.88,17.67-21.56,30.35-30c1.27-0.84,2.59-1.68,4.06-1.97s3.15,0.06,4.04,1.26
		c1.23,1.65,0.61,4.24,1.87,5.86c1.18,1.52,3.54,1.56,4.87,2.94c1.28,1.32,1.25,3.55,0.41,5.24c-0.84,1.69-2.31,2.96-3.78,4.13
		c-9.62,7.73-20.47,13.75-31.64,18.8c-2.5,1.13-5.2,2.24-7.85,1.74C1751.43,303.18,1749.27,299.36,1751.73,295.68z"/>
	<path class="st2" d="M1747.42,343.35c4.32-0.99,6.92,3.22,10.14,6.2c8.68,8.01,15.56,18.01,20.02,29.08
		c0.59,1.47,1.15,3.01,1.07,4.6c-0.08,1.6-0.97,3.28-2.46,3.81c-1.63,0.58-3.59-0.29-5.06,0.65c-1.55,0.99-1.71,3.51-3.36,4.31
		c-1,0.49-2.52,0.34-3.49-0.15c-1.52-0.77-2.47-2.41-3.04-3.35c-7.48-12.24-14.25-31.36-14.99-34.96
		C1744.7,345.99,1744.89,343.93,1747.42,343.35z"/>
	<path class="st2" d="M1717.15,345.36c3.06,1.24,3.82,4.15,2.88,8.79c-2.11,10.46-4.26,21.06-8.49,30.93
		c-1.05,2.44-2.29,4.92-4.14,6.58c-1.85,1.66-4.47,2.26-6,0.74c-1.09-1.09-1.55-3.11-2.97-3.57c-1.63-0.52-3.54,1.35-5.24,1.09
		c-1.35-0.21-2.19-1.78-2.27-3.44s0.44-3.39,1.02-5.03c3.75-10.62,13.59-26.24,17.34-31.31
		C1711.58,347.06,1713.22,343.77,1717.15,345.36z"/>
	<path class="st2" d="M1732.91,349.98c3.31-0.21,5.22,2.09,6.29,6.68c2.42,10.35,4.86,20.84,5.08,31.56
		c0.05,2.66-0.05,5.43-1.06,7.73c-1.01,2.3-3.15,3.97-5.18,3.26c-1.45-0.51-2.71-2.14-4.2-1.94c-1.71,0.23-2.68,2.75-4.34,3.25
		c-1.33,0.4-2.74-0.66-3.51-2.12c-0.76-1.46-1.01-3.25-1.16-4.98c-0.98-11.2,1.54-29.54,2.87-35.73
		C1728.51,353.92,1728.65,350.25,1732.91,349.98z"/>
	<path class="st2" d="M1701.09,309.97c-9.86-2.7-24.57-9.84-35.32-19.57c-1.07-0.97-2.15-2-2.73-3.4c-0.58-1.39-0.56-3.24,0.43-4.61
		c1.37-1.88,4.02-2.24,5.36-4.14c1.25-1.79,0.83-4.2,1.91-6.09c1.03-1.8,3.22-2.62,5.04-2.41c1.82,0.21,3.35,1.24,4.79,2.28
		c9.46,6.88,17.48,15.67,24.62,25.15c1.6,2.12,3.21,4.46,3.25,7.35C1708.48,307.43,1705.17,311.09,1701.09,309.97z"/>
	<path class="st2" d="M1698.9,327.29c-9.39,4.76-25.46,9.6-40.21,9.86c-1.47,0.03-2.99,0.01-4.36-0.61
		c-1.37-0.62-2.59-1.97-2.73-3.64c-0.2-2.3,1.61-4.37,1.37-6.67c-0.23-2.15-2.16-3.62-2.58-5.74c-0.4-2.02,0.74-4.1,2.28-5.19
		c1.54-1.09,3.4-1.39,5.2-1.6c11.86-1.45,23.88-0.53,35.68,1.49c2.64,0.45,5.44,1.05,7.39,3.13
		C1702.9,320.41,1702.79,325.32,1698.9,327.29z"/>
	<path class="st2" d="M1707.33,341.44c-5.52,8.51-16.5,20.57-28.52,28.46c-1.2,0.79-2.45,1.57-3.87,1.81s-3.05-0.15-3.94-1.35
		c-1.23-1.65-0.7-4.16-1.96-5.78c-1.18-1.52-3.45-1.63-4.78-3.02c-1.27-1.32-1.3-3.5-0.53-5.13s2.16-2.83,3.54-3.93
		c9.09-7.28,19.41-12.85,30.06-17.47c2.38-1.03,4.96-2.04,7.53-1.47C1707.43,334.11,1709.62,337.91,1707.33,341.44z"/>
	<path class="st2" d="M1728.8,290.76c-4.18-1.32-4.34-6.33-5.64-10.58c-3.5-11.44-4.49-23.72-2.89-35.7
		c0.21-1.59,0.49-3.22,1.34-4.58c0.85-1.36,2.43-2.39,3.97-2.1c1.68,0.32,2.93,2.07,4.65,1.99c1.81-0.09,3.18-2.22,4.99-2.09
		c1.09,0.08,2.32,0.98,2.91,1.9c0.92,1.44,0.93,3.37,0.96,4.48c0.41,14.55-3.16,34.78-4.29,38.32
		C1732.41,289.82,1731.24,291.53,1728.8,290.76z"/>
	<path class="st2" d="M1716.37,295.31c-4.38,0.57-6.57-3.88-9.5-7.16c-7.87-8.83-13.78-19.47-17.18-30.94
		c-0.45-1.52-0.86-3.11-0.63-4.69c0.23-1.59,1.27-3.17,2.8-3.56c1.68-0.42,3.54,0.63,5.09-0.16c1.63-0.84,2.02-3.34,3.74-3.98
		c1.04-0.39,2.53-0.1,3.45,0.49c1.44,0.91,2.22,2.64,2.71,3.64c6.29,12.94,11.23,32.66,11.63,36.32
		C1719.31,292.95,1718.93,294.98,1716.37,295.31z"/>
	<path class="st2" d="M1742.04,292.98c-2.86-1.65-3.21-4.66-1.66-9.17c3.5-10.16,7.05-20.46,12.57-29.74
		c1.37-2.3,2.93-4.6,4.98-6.01c2.06-1.41,4.72-1.65,6.03,0.07c0.93,1.24,1.11,3.32,2.45,3.97c1.54,0.74,3.68-0.87,5.33-0.38
		c1.31,0.39,1.92,2.07,1.78,3.74c-0.14,1.67-0.89,3.33-1.69,4.89c-5.14,10.1-16.98,24.38-21.38,28.92
		C1747.78,292.04,1745.71,295.1,1742.04,292.98z"/>
	<path class="st2" d="M1785.06,941.12c5.16-11.86-0.28-27.23-11.71-33.1s-27.09-1.34-33.72,9.76c-6.63,11.1-3.22,27.06,7.35,34.36
		C1757.56,959.45,1773.66,956.97,1785.06,941.12z"/>
	<path class="st2" d="M1792.78,938.69c10.33,1.31,26.21,6.35,38.49,14.51c1.23,0.81,2.47,1.69,3.26,2.99
		c0.79,1.3,1.05,3.14,0.26,4.63c-1.09,2.05-3.72,2.77-4.77,4.85c-0.99,1.94-0.21,4.28-1.01,6.31c-0.77,1.93-2.85,3.05-4.71,3.09
		s-3.56-0.76-5.16-1.6c-10.55-5.52-19.95-13.11-28.56-21.53c-1.92-1.88-3.9-3.97-4.37-6.84S1788.5,938.14,1792.78,938.69z"/>
	<path class="st2" d="M1791.95,918.3c10.02-4.82,27.16-9.75,42.84-10.09c1.57-0.03,3.18-0.03,4.63,0.58s2.73,1.96,2.87,3.63
		c0.19,2.3-1.75,4.38-1.52,6.68c0.22,2.15,2.26,3.61,2.69,5.73c0.41,2.02-0.82,4.11-2.47,5.21c-1.65,1.1-3.63,1.4-5.55,1.63
		c-12.62,1.51-25.39,0.66-37.92-1.3c-2.8-0.44-5.77-1.02-7.83-3.09S1787.79,920.29,1791.95,918.3z"/>
	<path class="st2" d="M1781.81,905.65c5.95-8.88,17.67-21.56,30.35-30c1.27-0.84,2.59-1.68,4.06-1.97c1.47-0.3,3.15,0.06,4.04,1.26
		c1.23,1.65,0.61,4.24,1.87,5.86c1.18,1.52,3.54,1.56,4.87,2.94c1.28,1.32,1.25,3.55,0.41,5.24c-0.84,1.69-2.31,2.96-3.78,4.13
		c-9.62,7.73-20.47,13.75-31.64,18.8c-2.5,1.13-5.2,2.24-7.85,1.74C1781.51,913.14,1779.34,909.32,1781.81,905.65z"/>
	<path class="st2" d="M1777.49,953.32c4.32-0.99,6.92,3.22,10.14,6.2c8.68,8.01,15.56,18.01,20.02,29.08
		c0.59,1.47,1.15,3.01,1.07,4.6c-0.08,1.6-0.97,3.28-2.46,3.81c-1.63,0.58-3.59-0.29-5.06,0.65c-1.55,0.99-1.71,3.51-3.36,4.31
		c-1,0.49-2.52,0.34-3.49-0.15c-1.52-0.77-2.47-2.41-3.04-3.35c-7.48-12.24-14.25-31.36-14.99-34.96
		C1774.77,955.95,1774.96,953.9,1777.49,953.32z"/>
	<path class="st2" d="M1747.23,955.32c3.06,1.24,3.82,4.15,2.88,8.79c-2.11,10.46-4.26,21.06-8.49,30.93
		c-1.05,2.44-2.29,4.92-4.14,6.58c-1.85,1.66-4.47,2.26-6,0.74c-1.09-1.09-1.55-3.11-2.97-3.57c-1.63-0.52-3.54,1.35-5.24,1.09
		c-1.35-0.21-2.19-1.78-2.27-3.44s0.44-3.39,1.02-5.03c3.75-10.62,13.59-26.24,17.34-31.31
		C1741.65,957.03,1743.3,953.74,1747.23,955.32z"/>
	<path class="st2" d="M1762.98,959.95c3.31-0.21,5.22,2.09,6.29,6.68c2.42,10.35,4.86,20.84,5.08,31.56
		c0.05,2.66-0.05,5.43-1.06,7.73c-1.01,2.3-3.15,3.97-5.18,3.26c-1.45-0.51-2.71-2.14-4.2-1.94c-1.71,0.23-2.68,2.75-4.34,3.25
		c-1.33,0.4-2.74-0.66-3.51-2.12c-0.77-1.46-1.01-3.25-1.16-4.98c-0.98-11.2,1.54-29.54,2.87-35.73
		C1758.59,963.89,1758.72,960.21,1762.98,959.95z"/>
	<path class="st2" d="M1731.17,919.94c-9.86-2.7-24.57-9.84-35.32-19.57c-1.07-0.97-2.15-2-2.73-3.4c-0.58-1.39-0.56-3.24,0.43-4.61
		c1.37-1.88,4.02-2.24,5.36-4.14c1.25-1.79,0.83-4.2,1.91-6.09c1.03-1.8,3.22-2.62,5.04-2.41c1.82,0.21,3.35,1.24,4.79,2.28
		c9.46,6.88,17.48,15.67,24.62,25.15c1.6,2.12,3.21,4.46,3.25,7.35C1738.56,917.39,1735.25,921.06,1731.17,919.94z"/>
	<path class="st2" d="M1728.98,937.26c-9.39,4.76-25.46,9.6-40.21,9.86c-1.47,0.03-2.99,0.01-4.36-0.61
		c-1.37-0.62-2.59-1.97-2.73-3.64c-0.2-2.3,1.61-4.37,1.37-6.67c-0.23-2.15-2.16-3.62-2.58-5.74c-0.4-2.02,0.74-4.1,2.28-5.19
		s3.4-1.39,5.2-1.6c11.86-1.45,23.88-0.53,35.68,1.49c2.64,0.45,5.44,1.05,7.39,3.13C1732.98,930.37,1732.86,935.29,1728.98,937.26z
		"/>
	<path class="st2" d="M1737.41,951.4c-5.52,8.51-16.5,20.57-28.52,28.46c-1.2,0.79-2.45,1.57-3.87,1.81
		c-1.42,0.25-3.05-0.15-3.94-1.35c-1.23-1.65-0.7-4.16-1.96-5.78c-1.18-1.52-3.45-1.63-4.78-3.02c-1.27-1.32-1.3-3.5-0.53-5.13
		c0.76-1.63,2.16-2.83,3.54-3.93c9.09-7.28,19.41-12.85,30.06-17.47c2.38-1.03,4.96-2.04,7.53-1.47
		C1737.51,944.08,1739.7,947.88,1737.41,951.4z"/>
	<path class="st2" d="M1758.87,900.72c-4.18-1.32-4.34-6.33-5.64-10.58c-3.5-11.44-4.49-23.72-2.89-35.7
		c0.21-1.59,0.49-3.22,1.34-4.58c0.85-1.36,2.43-2.39,3.97-2.1c1.68,0.32,2.93,2.07,4.65,1.99c1.81-0.09,3.18-2.22,4.99-2.09
		c1.09,0.08,2.32,0.98,2.91,1.9c0.92,1.44,0.93,3.37,0.96,4.48c0.41,14.55-3.16,34.78-4.29,38.32
		C1762.49,899.79,1761.32,901.5,1758.87,900.72z"/>
	<path class="st2" d="M1746.44,905.28c-4.38,0.57-6.57-3.88-9.5-7.16c-7.87-8.83-13.78-19.47-17.18-30.94
		c-0.45-1.52-0.86-3.11-0.63-4.69c0.23-1.59,1.27-3.17,2.8-3.56c1.68-0.42,3.54,0.63,5.09-0.16c1.63-0.84,2.02-3.34,3.74-3.98
		c1.04-0.39,2.53-0.1,3.45,0.49c1.44,0.91,2.22,2.64,2.71,3.64c6.29,12.94,11.23,32.66,11.63,36.32
		C1749.39,902.91,1749.01,904.94,1746.44,905.28z"/>
	<path class="st2" d="M1772.11,902.95c-2.86-1.65-3.21-4.66-1.66-9.17c3.5-10.16,7.05-20.46,12.57-29.74
		c1.37-2.3,2.93-4.6,4.98-6.01c2.06-1.41,4.72-1.65,6.03,0.07c0.93,1.24,1.11,3.32,2.45,3.97c1.54,0.74,3.68-0.87,5.33-0.38
		c1.31,0.39,1.92,2.07,1.78,3.74c-0.14,1.67-0.89,3.33-1.69,4.89c-5.14,10.1-16.98,24.38-21.38,28.92
		C1777.85,902,1775.78,905.07,1772.11,902.95z"/>
	<path class="st2" d="M1587.27,425.1c5.89-13.52-0.15-30.97-13.01-37.57c-12.86-6.61-30.56-1.35-38.11,11.31
		c-7.55,12.66-3.8,30.79,8.09,39.04C1556.12,446.12,1574.3,443.21,1587.27,425.1z"/>
	<path class="st2" d="M1595.99,422.29c11.65,1.43,29.54,7.07,43.34,16.27c1.38,0.92,2.77,1.9,3.66,3.38s1.17,3.56,0.26,5.26
		c-1.25,2.34-4.21,3.18-5.41,5.54c-1.13,2.22-0.26,4.87-1.18,7.18c-0.88,2.2-3.23,3.48-5.33,3.54s-4.01-0.84-5.81-1.79
		c-11.88-6.21-22.43-14.79-32.09-24.31c-2.16-2.13-4.38-4.5-4.89-7.75C1588,426.36,1591.16,421.7,1595.99,422.29z"/>
	<path class="st2" d="M1595.17,399.11c11.34-5.54,30.7-11.26,48.4-11.74c1.77-0.05,3.58-0.05,5.22,0.63
		c1.64,0.69,3.07,2.21,3.22,4.11c0.2,2.62-2.01,5-1.76,7.61c0.23,2.45,2.53,4.1,3,6.5c0.45,2.29-0.95,4.68-2.82,5.94
		c-1.87,1.26-4.1,1.62-6.27,1.89c-14.25,1.8-28.65,0.91-42.78-1.25c-3.16-0.48-6.5-1.13-8.81-3.47S1590.48,401.4,1595.17,399.11z"/>
	<path class="st2" d="M1583.81,384.78c6.77-10.14,20.07-24.63,34.43-34.31c1.43-0.97,2.93-1.92,4.59-2.27s3.56,0.05,4.56,1.41
		c1.38,1.87,0.66,4.82,2.08,6.65c1.33,1.72,3.98,1.76,5.48,3.32c1.43,1.49,1.39,4.02,0.43,5.95c-0.95,1.93-2.63,3.38-4.29,4.73
		c-10.91,8.85-23.18,15.76-35.82,21.58c-2.82,1.3-5.88,2.57-8.86,2.03C1583.42,393.31,1581.01,388.98,1583.81,384.78z"/>
	<path class="st2" d="M1578.65,439.03c4.88-1.15,7.79,3.62,11.41,6.99c9.74,9.06,17.45,20.39,22.42,32.95
		c0.66,1.66,1.28,3.41,1.17,5.23c-0.1,1.82-1.11,3.73-2.8,4.35c-1.85,0.67-4.05-0.31-5.72,0.77c-1.76,1.14-1.95,4-3.82,4.93
		c-1.13,0.56-2.84,0.4-3.94-0.15c-1.71-0.86-2.77-2.73-3.41-3.79c-8.37-13.88-15.89-35.58-16.7-39.67
		C1575.57,442.04,1575.79,439.7,1578.65,439.03z"/>
	<path class="st2" d="M1544.49,441.49c3.44,1.39,4.28,4.69,3.2,9.98c-2.44,11.91-4.93,23.98-9.77,35.23
		c-1.2,2.78-2.61,5.61-4.71,7.51c-2.1,1.9-5.06,2.6-6.77,0.88c-1.23-1.23-1.73-3.53-3.33-4.04c-1.83-0.59-4,1.56-5.92,1.27
		c-1.53-0.23-2.46-2.01-2.54-3.9c-0.08-1.89,0.52-3.86,1.18-5.73c4.3-12.1,15.49-29.93,19.76-35.72
		C1538.19,443.46,1540.06,439.71,1544.49,441.49z"/>
	<path class="st2" d="M1562.24,446.65c3.74-0.25,5.88,2.35,7.06,7.56c2.67,11.75,5.36,23.67,5.54,35.87
		c0.05,3.02-0.09,6.17-1.24,8.79c-1.15,2.62-3.58,4.53-5.87,3.74c-1.64-0.57-3.05-2.42-4.73-2.18c-1.93,0.27-3.04,3.14-4.92,3.72
		c-1.5,0.46-3.09-0.73-3.95-2.39c-0.85-1.66-1.12-3.69-1.28-5.65c-1.04-12.73,1.91-33.61,3.46-40.65
		C1557.25,451.16,1557.43,446.98,1562.24,446.65z"/>
	<path class="st2" d="M1526.58,401.34c-11.11-3.01-27.66-11.04-39.73-22.04c-1.21-1.1-2.42-2.26-3.06-3.85
		c-0.65-1.58-0.61-3.68,0.52-5.24c1.55-2.15,4.55-2.57,6.07-4.75c1.42-2.04,0.96-4.79,2.2-6.94c1.18-2.06,3.65-3,5.7-2.78
		s3.77,1.39,5.39,2.57c10.63,7.77,19.63,17.71,27.63,28.46c1.79,2.4,3.6,5.05,3.62,8.34
		C1534.93,398.4,1531.18,402.59,1526.58,401.34z"/>
	<path class="st2" d="M1524,421.06c-10.62,5.47-28.79,11.08-45.43,11.46c-1.66,0.04-3.37,0.03-4.92-0.66
		c-1.54-0.69-2.91-2.23-3.06-4.13c-0.21-2.61,1.85-4.98,1.59-7.59c-0.24-2.44-2.41-4.11-2.87-6.51c-0.44-2.29,0.85-4.67,2.6-5.92
		c1.74-1.25,3.85-1.6,5.88-1.86c13.39-1.72,26.94-0.75,40.25,1.48c2.97,0.5,6.13,1.16,8.32,3.51
		C1528.56,413.2,1528.4,418.79,1524,421.06z"/>
	<path class="st2" d="M1533.43,437.09c-6.28,9.72-18.75,23.5-32.36,32.54c-1.36,0.9-2.78,1.8-4.38,2.09s-3.44-0.15-4.44-1.51
		c-1.38-1.87-0.77-4.73-2.18-6.57c-1.33-1.72-3.89-1.83-5.38-3.4c-1.42-1.5-1.44-3.98-0.57-5.83c0.87-1.86,2.45-3.23,4.02-4.5
		c10.3-8.34,21.98-14.73,34.03-20.05c2.69-1.19,5.61-2.35,8.51-1.72C1533.59,428.76,1536.03,433.07,1533.43,437.09z"/>
	<path class="st2" d="M1557.96,379.32c-4.71-1.48-4.86-7.18-6.3-12c-3.88-12.99-4.93-26.95-3.05-40.59
		c0.25-1.81,0.57-3.67,1.54-5.22c0.97-1.55,2.76-2.73,4.49-2.41c1.9,0.35,3.3,2.34,5.23,2.24c2.05-0.11,3.6-2.54,5.64-2.41
		c1.23,0.08,2.61,1.1,3.27,2.14c1.03,1.64,1.03,3.83,1.06,5.1c0.37,16.55-3.78,39.57-5.08,43.61
		C1562.05,378.23,1560.72,380.18,1557.96,379.32z"/>
	<path class="st2" d="M1543.91,384.57c-4.95,0.67-7.39-4.37-10.67-8.08c-8.83-10-15.43-22.06-19.2-35.09
		c-0.5-1.73-0.95-3.53-0.68-5.34c0.27-1.81,1.45-3.62,3.18-4.07c1.89-0.49,3.99,0.7,5.74-0.22c1.85-0.97,2.3-3.81,4.24-4.55
		c1.17-0.45,2.86-0.13,3.89,0.53c1.62,1.03,2.49,2.99,3.03,4.12c7.02,14.68,12.48,37.08,12.91,41.24
		C1547.25,381.86,1546.81,384.18,1543.91,384.57z"/>
	<path class="st2" d="M1572.89,381.77c-3.21-1.86-3.6-5.28-1.82-10.42c4.01-11.58,8.09-23.32,14.37-33.91
		c1.56-2.62,3.33-5.25,5.66-6.87c2.33-1.62,5.34-1.91,6.8,0.05c1.04,1.4,1.24,3.77,2.74,4.5c1.73,0.84,4.16-1.01,6.01-0.47
		c1.48,0.43,2.16,2.35,1.99,4.25c-0.17,1.9-1.03,3.79-1.93,5.57c-5.87,11.52-19.31,27.83-24.3,33.03
		C1579.37,380.66,1577.02,384.16,1572.89,381.77z"/>
	<path class="st2" d="M948.18,88.88c-18,1-33.71,16.83-33.84,34.09c-0.13,17.26,15.36,33.3,33.34,34.54
		c17.98,1.24,35.7-12.52,38.15-29.63S975.08,92.96,948.18,88.88z"/>
	<path class="st2" d="M940.31,81.1c-4.86-13.19-8.56-35.29-6.12-54.96c0.24-1.97,0.55-3.98,1.67-5.72s3.24-3.16,5.6-3.11
		c3.24,0.07,5.79,2.78,9.03,2.79c3.04,0.01,5.46-2.35,8.49-2.6c2.89-0.24,5.58,1.57,6.8,3.78c1.22,2.21,1.29,4.73,1.25,7.16
		c-0.24,16-3.79,31.86-8.85,47.29c-1.13,3.45-2.49,7.09-5.76,9.39C949.16,87.42,942.32,86.56,940.31,81.1z"/>
	<path class="st2" d="M915.46,94.44c-12.29-9.11-29.2-26.67-39.47-45.28c-1.03-1.86-2.03-3.79-2.18-5.91s0.73-4.47,2.72-5.64
		c2.75-1.62,6.56-0.55,9.27-2.22c2.54-1.57,3.08-4.9,5.44-6.69c2.25-1.71,5.63-1.5,8.03-0.19c2.4,1.31,4.03,3.5,5.52,5.67
		c9.81,14.23,16.77,30.05,22.21,46.27c1.21,3.63,2.35,7.54,1.07,11.26S920.55,98.21,915.46,94.44z"/>
	<path class="st2" d="M906.07,114.26c-14.8-1.76-37.94-8.14-56.41-18.24c-1.84-1.01-3.71-2.09-5.01-3.68s-1.9-3.82-0.97-5.61
		c1.28-2.47,4.89-3.3,6.11-5.8c1.14-2.34-0.28-5.19,0.6-7.63c0.84-2.33,3.63-3.64,6.26-3.66c2.63-0.02,5.14,0.98,7.52,2.03
		c15.67,6.86,29.97,16.23,43.28,26.57c2.97,2.31,6.05,4.88,7.1,8.36C915.6,110.09,912.2,114.99,906.07,114.26z"/>
	<path class="st2" d="M968.12,90.57c-3.94-4.58-0.34-10.25,1.34-15.92c4.52-15.26,12.64-29.57,23.62-41.63
		c1.45-1.6,3.02-3.2,5.06-4.07c2.04-0.87,4.69-0.82,6.29,0.65c1.75,1.61,1.9,4.48,3.99,5.68c2.21,1.26,5.44-0.08,7.48,1.42
		c1.23,0.9,2,2.81,2,4.28c0,2.29-1.45,4.42-2.26,5.67c-10.54,16.39-30.08,36.08-34.1,39.15C973.11,92.24,970.43,93.26,968.12,90.57z
		"/>
	<path class="st2" d="M989.63,125.66c-0.38-4.42,2.76-7.09,9.13-8.78c14.34-3.81,28.89-7.65,43.83-8.54
		c3.7-0.22,7.56-0.23,10.8,0.98c3.23,1.22,5.62,3.99,4.69,6.74c-0.67,1.97-2.9,3.74-2.58,5.72c0.37,2.27,3.9,3.42,4.65,5.62
		c0.59,1.75-0.84,3.7-2.85,4.81c-2.02,1.1-4.49,1.53-6.9,1.82c-15.57,1.93-41.2-0.41-49.86-1.84
		C995.25,131.32,990.13,131.34,989.63,125.66z"/>
	<path class="st2" d="M985.49,103.96c-2.34-3.85-0.67-7.53,4.36-11.6c11.36-9.17,22.88-18.45,36.09-25.21
		c3.27-1.67,6.78-3.22,10.28-3.41c3.5-0.19,6.92,1.38,7.31,4.25c0.28,2.05-0.96,4.55,0.23,6.21c1.36,1.91,5.1,1.55,6.77,3.25
		c1.33,1.35,0.91,3.69-0.43,5.49c-1.34,1.8-3.41,3.17-5.47,4.4c-13.32,7.96-37.73,16.05-46.27,18.19
		C993.16,106.85,988.5,108.91,985.49,103.96z"/>
	<path class="st2" d="M955.68,166.36c2.83,13.46,3.19,35.43-2.16,54.21c-0.53,1.88-1.14,3.79-2.51,5.33
		c-1.37,1.54-3.68,2.64-6.01,2.27c-3.2-0.5-5.31-3.47-8.52-3.92c-3.01-0.42-5.76,1.55-8.79,1.39c-2.9-0.15-5.29-2.27-6.17-4.58
		c-0.88-2.31-0.57-4.77-0.17-7.12c2.63-15.51,8.52-30.45,15.84-44.76c1.64-3.2,3.53-6.55,7.11-8.35S954.51,160.78,955.68,166.36z"/>
	<path class="st2" d="M978.62,158.5c11.82,8.38,27.95,24.73,37.54,42.26c0.96,1.75,1.89,3.58,1.99,5.6c0.09,2.02-0.83,4.3-2.82,5.48
		c-2.74,1.63-6.45,0.71-9.16,2.39c-2.53,1.57-3.15,4.78-5.52,6.56c-2.26,1.7-5.57,1.6-7.89,0.41c-2.32-1.19-3.86-3.24-5.27-5.27
		c-9.25-13.35-15.66-28.32-20.56-43.71c-1.09-3.44-2.11-7.16-0.75-10.76S973.72,155.03,978.62,158.5z"/>
	<path class="st2" d="M990.92,139.81c14.06,1.46,35.98,7.34,53.34,16.98c1.73,0.96,3.49,2,4.69,3.55c1.2,1.55,1.72,3.75,0.8,5.54
		c-1.28,2.47-4.74,3.36-5.96,5.86c-1.15,2.34,0.14,5.13-0.75,7.56c-0.85,2.32-3.54,3.68-6.05,3.75c-2.51,0.07-4.87-0.88-7.12-1.86
		c-14.78-6.5-28.19-15.5-40.63-25.49c-2.78-2.23-5.65-4.72-6.57-8.14S985.1,139.21,990.92,139.81z"/>
	<path class="st2" d="M914.36,144.75c0.98,5.81-5.16,9.05-9.63,13.18c-12.04,11.12-26.69,19.75-42.62,25.09
		c-2.11,0.71-4.32,1.37-6.55,1.17s-4.5-1.47-5.11-3.49c-0.66-2.21,0.74-4.77-0.44-6.78c-1.25-2.12-4.76-2.47-5.73-4.72
		c-0.59-1.36-0.24-3.37,0.54-4.64c1.22-1.98,3.61-3.15,4.98-3.87c17.86-9.3,45.27-17.26,50.39-18.05
		C910.92,140.98,913.79,141.35,914.36,144.75z"/>
	<path class="st2" d="M927.83,156.91c3.46,4.91-0.7,10.23-2.94,15.73c-6.05,14.79-15.58,28.32-27.72,39.35
		c-1.61,1.46-3.33,2.92-5.45,3.6c-2.12,0.68-4.75,0.4-6.19-1.2c-1.58-1.75-1.44-4.63-3.4-6c-2.07-1.45-5.42-0.41-7.3-2.07
		c-1.14-1.01-1.71-2.98-1.56-4.44c0.23-2.28,1.89-4.27,2.82-5.45c12.15-15.38,33.59-33.25,37.9-35.95
		C923.04,154.81,925.81,154.03,927.83,156.91z"/>
	<path class="st2" d="M908.81,127.52c-0.26,4.42-3.78,6.67-10.37,7.54c-14.85,1.96-29.9,3.93-44.92,2.93
		c-3.72-0.25-7.57-0.72-10.62-2.34c-3.05-1.61-5.03-4.66-3.7-7.27c0.95-1.87,3.43-3.34,3.4-5.34c-0.04-2.29-3.39-3.89-3.82-6.16
		c-0.34-1.81,1.37-3.56,3.54-4.4c2.17-0.84,4.7-0.94,7.14-0.94c15.8,0.05,41.01,5.61,49.43,8.13
		C904.03,121.21,909.14,121.84,908.81,127.52z"/>
	<path class="st2" d="M1122.21,290.93c-14.13,0.84-26.46,14.12-26.56,28.62c-0.1,14.49,12.05,27.96,26.17,28.99
		s28.02-10.51,29.95-24.87C1153.68,309.32,1143.33,294.36,1122.21,290.93z"/>
	<path class="st2" d="M1116.03,284.4c-3.81-11.07-6.72-29.62-4.81-46.14c0.19-1.65,0.43-3.34,1.31-4.8c0.88-1.46,2.55-2.65,4.4-2.61
		c2.55,0.06,4.54,2.33,7.09,2.34c2.39,0.01,4.29-1.97,6.66-2.18c2.27-0.2,4.38,1.32,5.34,3.17c0.96,1.85,1.01,3.97,0.98,6.01
		c-0.18,13.43-2.97,26.75-6.95,39.7c-0.89,2.89-1.96,5.95-4.52,7.88C1122.97,289.71,1117.61,288.99,1116.03,284.4z"/>
	<path class="st2" d="M1096.52,295.6c-9.65-7.65-22.92-22.39-30.99-38.01c-0.81-1.56-1.59-3.18-1.71-4.96
		c-0.12-1.77,0.57-3.75,2.13-4.74c2.16-1.36,5.15-0.46,7.28-1.86c1.99-1.31,2.42-4.11,4.27-5.62c1.77-1.44,4.42-1.26,6.3-0.16
		c1.88,1.1,3.16,2.94,4.33,4.76c7.7,11.94,13.17,25.23,17.43,38.85c0.95,3.04,1.85,6.33,0.84,9.45
		C1105.4,296.43,1100.51,298.77,1096.52,295.6z"/>
	<path class="st2" d="M1089.15,312.24c-11.62-1.48-29.79-6.84-44.28-15.31c-1.45-0.85-2.92-1.75-3.93-3.09
		c-1.02-1.33-1.49-3.21-0.77-4.71c1-2.07,3.84-2.77,4.8-4.87c0.9-1.96-0.22-4.35,0.47-6.4c0.66-1.95,2.85-3.06,4.91-3.08
		c2.06-0.02,4.03,0.83,5.9,1.7c12.3,5.76,23.53,13.62,33.97,22.31c2.33,1.94,4.75,4.1,5.57,7.02S1093.96,312.85,1089.15,312.24z"/>
	<path class="st2" d="M1137.86,292.35c-3.09-3.85-0.27-8.6,1.05-13.36c3.55-12.81,9.93-24.83,18.54-34.94
		c1.14-1.34,2.37-2.68,3.97-3.41c1.6-0.73,3.68-0.69,4.93,0.54c1.37,1.35,1.49,3.76,3.13,4.77c1.73,1.06,4.27-0.06,5.87,1.19
		c0.97,0.76,1.57,2.36,1.57,3.59c0,1.92-1.14,3.71-1.78,4.76c-8.27,13.76-23.61,30.29-26.77,32.86
		C1141.78,293.76,1139.67,294.61,1137.86,292.35z"/>
	<path class="st2" d="M1154.75,321.81c-0.3-3.71,2.17-5.95,7.16-7.37c11.26-3.2,22.68-6.42,34.41-7.17c2.9-0.19,5.94-0.2,8.47,0.82
		c2.54,1.02,4.42,3.35,3.68,5.66c-0.53,1.65-2.28,3.14-2.02,4.8c0.29,1.9,3.06,2.87,3.65,4.72c0.47,1.47-0.66,3.11-2.24,4.03
		c-1.58,0.93-3.53,1.28-5.42,1.53c-12.23,1.62-32.34-0.34-39.14-1.55C1159.16,326.56,1155.14,326.58,1154.75,321.81z"/>
	<path class="st2" d="M1151.5,303.6c-1.84-3.23-0.53-6.32,3.43-9.73c8.92-7.7,17.96-15.49,28.34-21.16
		c2.57-1.41,5.33-2.71,8.07-2.86c2.74-0.16,5.43,1.16,5.74,3.57c0.22,1.72-0.75,3.82,0.18,5.22c1.07,1.6,4,1.3,5.31,2.72
		c1.04,1.13,0.71,3.1-0.34,4.61c-1.05,1.51-2.68,2.66-4.29,3.7c-10.46,6.68-29.62,13.47-36.32,15.27
		C1157.52,306.02,1153.85,307.75,1151.5,303.6z"/>
	<path class="st2" d="M1128.1,355.97c2.22,11.3,2.5,29.74-1.7,45.51c-0.42,1.58-0.9,3.18-1.97,4.48s-2.89,2.21-4.72,1.91
		c-2.51-0.42-4.17-2.91-6.69-3.29c-2.36-0.35-4.52,1.3-6.9,1.17c-2.27-0.12-4.15-1.91-4.84-3.85s-0.44-4-0.13-5.98
		c2.06-13.02,6.69-25.56,12.43-37.58c1.28-2.68,2.77-5.5,5.58-7.01S1127.17,351.29,1128.1,355.97z"/>
	<path class="st2" d="M1146.1,349.37c9.28,7.03,21.94,20.76,29.47,35.47c0.75,1.47,1.49,3,1.56,4.7c0.07,1.7-0.65,3.61-2.21,4.6
		c-2.15,1.37-5.06,0.6-7.19,2.01c-1.99,1.32-2.48,4.01-4.33,5.51c-1.77,1.43-4.37,1.34-6.19,0.35c-1.82-1-3.03-2.72-4.14-4.43
		c-7.26-11.21-12.3-23.77-16.14-36.69c-0.86-2.89-1.66-6.01-0.59-9.03C1137.4,348.85,1142.26,346.46,1146.1,349.37z"/>
	<path class="st2" d="M1155.76,333.69c11.04,1.23,28.24,6.16,41.87,14.26c1.36,0.81,2.74,1.68,3.68,2.98
		c0.94,1.3,1.35,3.14,0.63,4.65c-1,2.07-3.72,2.82-4.68,4.92c-0.9,1.96,0.11,4.31-0.59,6.35c-0.67,1.95-2.78,3.09-4.75,3.15
		c-1.97,0.06-3.82-0.74-5.59-1.56c-11.6-5.46-22.13-13.01-31.89-21.4c-2.18-1.87-4.44-3.96-5.16-6.84
		C1148.56,337.32,1151.19,333.18,1155.76,333.69z"/>
	<path class="st2" d="M1095.66,337.84c0.77,4.88-4.05,7.59-7.56,11.06c-9.45,9.34-20.96,16.58-33.46,21.06
		c-1.66,0.59-3.39,1.15-5.14,0.98c-1.75-0.17-3.53-1.24-4.01-2.93c-0.52-1.85,0.58-4.01-0.35-5.69c-0.98-1.78-3.74-2.07-4.5-3.96
		c-0.46-1.14-0.19-2.83,0.42-3.9c0.95-1.66,2.83-2.65,3.91-3.25c14.02-7.81,35.54-14.49,39.56-15.15
		C1092.96,334.67,1095.2,334.98,1095.66,337.84z"/>
	<path class="st2" d="M1106.23,348.04c2.72,4.12-0.55,8.59-2.31,13.2c-4.75,12.42-12.23,23.77-21.76,33.03
		c-1.26,1.23-2.61,2.45-4.28,3.02s-3.73,0.34-4.86-1.01c-1.24-1.47-1.13-3.89-2.67-5.04c-1.63-1.22-4.26-0.34-5.73-1.74
		c-0.89-0.85-1.34-2.5-1.23-3.72c0.18-1.91,1.49-3.58,2.22-4.57c9.54-12.91,26.37-27.91,29.75-30.18
		C1102.47,346.28,1104.64,345.63,1106.23,348.04z"/>
	<path class="st2" d="M1091.3,323.38c-0.2,3.71-2.97,5.6-8.14,6.33c-11.66,1.65-23.48,3.3-35.26,2.46
		c-2.92-0.21-5.94-0.61-8.33-1.96s-3.95-3.92-2.9-6.11c0.75-1.57,2.69-2.81,2.67-4.48c-0.03-1.93-2.66-3.26-3-5.17
		c-0.27-1.52,1.08-2.99,2.78-3.69c1.7-0.7,3.69-0.79,5.61-0.79c12.41,0.05,32.19,4.71,38.8,6.82
		C1087.55,318.08,1091.56,318.6,1091.3,323.38z"/>
	<path class="st2" d="M1274.76,879.46c-18.58,1.08-34.79,18.26-34.92,36.99c-0.13,18.73,15.85,36.14,34.41,37.48
		c18.56,1.34,36.84-13.59,39.37-32.15C1316.15,903.23,1302.53,883.89,1274.76,879.46z"/>
	<path class="st2" d="M1266.64,871.02c-5.01-14.31-8.83-38.29-6.32-59.64c0.25-2.13,0.57-4.32,1.73-6.21
		c1.16-1.89,3.35-3.43,5.78-3.37c3.35,0.08,5.97,3.01,9.32,3.03c3.14,0.01,5.64-2.55,8.76-2.82c2.98-0.27,5.76,1.71,7.02,4.1
		s1.33,5.13,1.29,7.77c-0.24,17.36-3.91,34.58-9.13,51.32c-1.17,3.74-2.57,7.69-5.94,10.19
		C1275.77,877.88,1268.72,876.94,1266.64,871.02z"/>
	<path class="st2" d="M1240.99,885.5c-12.69-9.88-30.13-28.95-40.74-49.14c-1.06-2.02-2.1-4.12-2.25-6.41
		c-0.16-2.29,0.75-4.85,2.81-6.12c2.83-1.76,6.77-0.6,9.57-2.41c2.62-1.7,3.18-5.31,5.62-7.26c2.33-1.86,5.81-1.63,8.29-0.21
		c2.48,1.42,4.16,3.8,5.7,6.15c10.13,15.44,17.31,32.61,22.92,50.22c1.25,3.93,2.43,8.18,1.11,12.22S1246.24,889.59,1240.99,885.5z"
		/>
	<path class="st2" d="M1231.31,907.01c-15.27-1.92-39.16-8.84-58.22-19.79c-1.9-1.09-3.83-2.26-5.17-3.99
		c-1.34-1.73-1.96-4.14-1.01-6.09c1.32-2.68,5.05-3.58,6.31-6.29c1.18-2.54-0.28-5.63,0.62-8.28c0.86-2.53,3.74-3.95,6.46-3.98
		s5.3,1.07,7.76,2.2c16.17,7.45,30.93,17.61,44.67,28.84c3.07,2.51,6.24,5.3,7.32,9.07C1241.14,902.47,1237.63,907.8,1231.31,907.01
		z"/>
	<path class="st2" d="M1295.35,881.3c-4.07-4.97-0.35-11.12,1.38-17.27c4.67-16.56,13.05-32.09,24.37-45.17
		c1.5-1.73,3.12-3.47,5.22-4.41c2.11-0.94,4.84-0.89,6.49,0.7c1.81,1.74,1.96,4.87,4.12,6.16c2.28,1.37,5.62-0.08,7.72,1.54
		c1.27,0.98,2.07,3.05,2.07,4.64c0,2.48-1.5,4.79-2.33,6.16c-10.88,17.78-31.04,39.15-35.19,42.48
		C1300.49,883.11,1297.73,884.21,1295.35,881.3z"/>
	<path class="st2" d="M1317.55,919.38c-0.4-4.79,2.85-7.69,9.42-9.53c14.8-4.13,29.82-8.3,45.24-9.27c3.82-0.24,7.8-0.25,11.14,1.06
		c3.34,1.32,5.8,4.33,4.84,7.32c-0.69,2.14-2.99,4.06-2.66,6.21c0.38,2.46,4.03,3.72,4.8,6.1c0.61,1.9-0.86,4.02-2.94,5.22
		s-4.64,1.66-7.12,1.98c-16.07,2.1-42.53-0.44-51.46-2C1323.35,925.52,1318.06,925.54,1317.55,919.38z"/>
	<path class="st2" d="M1313.27,895.83c-2.41-4.18-0.7-8.17,4.5-12.58c11.72-9.95,23.62-20.02,37.25-27.36c3.38-1.82,7-3.5,10.61-3.7
		c3.61-0.2,7.14,1.5,7.54,4.61c0.29,2.23-0.99,4.94,0.23,6.74c1.4,2.07,5.26,1.68,6.99,3.52c1.37,1.46,0.93,4.01-0.45,5.96
		c-1.38,1.96-3.52,3.44-5.64,4.78c-13.75,8.63-38.94,17.41-47.76,19.74C1321.19,898.97,1316.38,901.2,1313.27,895.83z"/>
	<path class="st2" d="M1282.51,963.54c2.92,14.61,3.29,38.45-2.23,58.83c-0.55,2.04-1.18,4.12-2.59,5.79
		c-1.41,1.67-3.8,2.86-6.2,2.47c-3.3-0.54-5.48-3.77-8.8-4.25c-3.1-0.45-5.94,1.68-9.07,1.51c-2.99-0.16-5.46-2.47-6.37-4.97
		c-0.91-2.5-0.58-5.17-0.17-7.73c2.71-16.84,8.79-33.05,16.34-48.58c1.69-3.47,3.64-7.11,7.33-9.06S1281.3,957.49,1282.51,963.54z"
		/>
	<path class="st2" d="M1306.18,955.01c12.2,9.09,28.85,26.83,38.74,45.86c0.99,1.9,1.95,3.88,2.05,6.07
		c0.1,2.19-0.86,4.67-2.91,5.95c-2.83,1.77-6.66,0.77-9.45,2.6c-2.62,1.71-3.26,5.19-5.7,7.12c-2.33,1.85-5.75,1.74-8.14,0.45
		c-2.39-1.29-3.98-3.52-5.44-5.72c-9.55-14.49-16.16-30.73-21.22-47.43c-1.13-3.73-2.18-7.77-0.78-11.67
		C1294.74,954.33,1301.13,951.25,1306.18,955.01z"/>
	<path class="st2" d="M1318.88,934.74c14.51,1.59,37.13,7.96,55.05,18.43c1.79,1.05,3.6,2.17,4.84,3.85
		c1.23,1.68,1.78,4.06,0.82,6.01c-1.32,2.68-4.89,3.65-6.16,6.36c-1.18,2.54,0.14,5.57-0.78,8.21c-0.88,2.52-3.66,3.99-6.25,4.07
		c-2.59,0.08-5.03-0.95-7.35-2.02c-15.25-7.05-29.09-16.82-41.93-27.66c-2.87-2.42-5.83-5.12-6.78-8.84
		C1309.41,939.42,1312.87,934.08,1318.88,934.74z"/>
	<path class="st2" d="M1239.86,940.1c1.01,6.31-5.32,9.82-9.94,14.3c-12.43,12.07-27.55,21.43-43.99,27.23
		c-2.18,0.77-4.46,1.48-6.76,1.27s-4.64-1.6-5.27-3.79c-0.68-2.4,0.76-5.18-0.46-7.36c-1.29-2.3-4.91-2.68-5.92-5.12
		c-0.61-1.47-0.25-3.66,0.55-5.04c1.25-2.15,3.73-3.42,5.14-4.2c18.43-10.09,46.73-18.74,52.01-19.59
		C1236.31,936,1239.27,936.4,1239.86,940.1z"/>
	<path class="st2" d="M1253.77,953.29c3.57,5.33-0.72,11.1-3.04,17.07c-6.24,16.05-16.08,30.73-28.61,42.7
		c-1.66,1.59-3.43,3.17-5.62,3.91c-2.19,0.74-4.9,0.44-6.39-1.3c-1.63-1.9-1.48-5.03-3.51-6.52c-2.14-1.57-5.6-0.44-7.54-2.25
		c-1.17-1.09-1.77-3.23-1.61-4.81c0.24-2.47,1.95-4.63,2.92-5.91c12.54-16.69,34.67-36.09,39.12-39.01
		C1248.82,951.01,1251.68,950.17,1253.77,953.29z"/>
	<path class="st2" d="M1234.13,921.4c-0.27,4.8-3.9,7.24-10.7,8.19c-15.32,2.13-30.86,4.26-46.36,3.18
		c-3.84-0.27-7.81-0.78-10.96-2.54c-3.15-1.75-5.19-5.06-3.81-7.89c0.98-2.03,3.54-3.63,3.51-5.8c-0.04-2.49-3.5-4.22-3.94-6.68
		c-0.35-1.96,1.41-3.87,3.65-4.78c2.24-0.91,4.85-1.02,7.37-1.01c16.31,0.06,42.32,6.09,51.02,8.82
		C1229.2,914.55,1234.47,915.23,1234.13,921.4z"/>
</g>
<g id="Layer_12">
	<g id="Layer_15">
	</g>
</g>
<g id="Layer_16">
</g>
</svg>
