<?xml version="1.0" encoding="utf-8"?>
<!-- Generator: Adobe Adobe Illustrator 24.2.0, SVG Export Plug-In . SVG Version: 6.00 Build 0)  -->
<svg version="1.1" xmlns="http://www.w3.org/2000/svg" xmlns:xlink="http://www.w3.org/1999/xlink" x="0px" y="0px" width="80px"
	 height="80px" viewBox="0 0 80 80" style="enable-background:new 0 0 80 80;" xml:space="preserve">
<style type="text/css">
	.st0{fill:#F9F9F1;}
	.st1{fill:#E9D086;}
	.st2{fill:#77B15E;}
	.st3{fill:#5A3A31;}
</style>
<g id="Layer_11">
</g>
<g id="Layer_12">
	<g id="Layer_15">
		<path class="st0" d="M40.09,0.01C29.2,10.99,22.56,17.35,14.42,31.54C6.68,45.03,6.8,59.9,17.59,69.12
			c17.3,14.77,41.74,6.83,48.45-3.85c5.9-9.38,7.4-22.88-0.33-35.84C59.42,18.87,53.08,14.46,40.09,0.01z"/>
		<path d="M39.95,7.39c-9.05,8.94-14.57,14.11-21.34,25.67c-6.43,10.98-6.34,23.09,2.64,30.59c14.38,12.02,34.7,5.56,40.29-3.14
			c4.9-7.64,6.15-18.62-0.27-29.17C56.02,22.75,50.75,19.16,39.95,7.39z"/>
	</g>
	<path class="st2" d="M40.39,64.75c3.83,1.24,18.68-1.35,20.87-17.69"/>
	<path class="st2" d="M17.98,45.18c0-13.85,22-34.93,22-34.93s21.54,21.04,21.54,34.93c0,14.44-9.64,19.93-21.54,19.93
		S17.98,58.6,17.98,45.18z"/>
	<path d="M30.72,64.23c-1.5-7.31,0.79-16.08,5.27-23.57c4.18-6.97,11.16-10.62,18.33-13.53c1.86,2.24,2.15,1.13,4.69,6.36
		C48.34,33.5,34.77,38.28,30.72,64.23z"/>
	<path d="M23.77,29.26c8.03,3.1,12.2,9.36,13.3,13.67c-1.02-3.06,2.31-2.02,0.06-5.69c-2.68-4.38-6.85-10.7-9.99-13.9
		C25.35,25.34,25.63,26.26,23.77,29.26z"/>
</g>
<g id="Layer_16">
</g>
</svg>
