<?xml version="1.0" encoding="utf-8"?>
<!-- Generator: Adobe Adobe Illustrator 24.2.0, SVG Export Plug-In . SVG Version: 6.00 Build 0)  -->
<svg version="1.1" xmlns="http://www.w3.org/2000/svg" xmlns:xlink="http://www.w3.org/1999/xlink" x="0px" y="0px" width="80px"
	 height="80px" viewBox="0 0 80 80" style="enable-background:new 0 0 80 80;" xml:space="preserve">
<style type="text/css">
	.st0{fill:#F9F9F1;}
	.st1{fill:#E9D086;}
	.st2{fill:#77B15E;}
	.st3{fill:#5A3A31;}
</style>
<g id="Layer_11">
</g>
<g id="Layer_12">
	<g id="Layer_15">
	</g>
</g>
<g id="Layer_16">
	<path class="st0" d="M9.76,33.49C28.3,4.19,60.44,3.41,60.44,3.41s17.41,25.71,2.27,58.14c-6.44,13.8-26.72,19.86-41.1,10.6
		C6.62,62.49,3.15,43.95,9.76,33.49z"/>
	<path d="M15.48,34.74C31.32,9.5,57.61,8.08,57.61,8.08s13.62,21.36,0.49,49.17c-5.59,11.84-22.31,17.44-33.84,9.94
		C12.22,59.37,9.82,43.75,15.48,34.74z"/>
	<path class="st3" d="M19.87,36.3c14.2-22.95,36-25.35,36-25.35s10.63,17.49-1.45,42.58C49.28,64.2,35.21,69.88,26,63.77
		C16.4,57.41,14.8,44.48,19.87,36.3z"/>
	<path class="st1" d="M55.94,11.08c4.46,5.91-0.44,36.66-8.98,46.14C41.8,62.94,34.92,68.73,26,63.77
		c7.59-8.42,13.82-11.71,19.93-23.68C50.59,30.96,52.76,22.96,55.94,11.08z"/>
	<path class="st1" d="M51.73,11.82c-5.06,0.85-27.77,19.72-31.33,29.69c-3.38,9.46-2.12,13.11-0.01,16.61
		c0.17-10.09,5.75-18.74,11.15-25.9C37.71,24.04,48.63,13.68,51.73,11.82z"/>
</g>
</svg>
